<svg xmlns="http://www.w3.org/2000/svg" width="48" height="49" viewBox="0 0 48 49">
    <g fill="none" fill-rule="nonzero">
        <path fill="#1A3E6F" d="M45 22.796v2.08c-.005 9.348-6.127 17.579-15.046 20.23-8.918 2.65-18.51-.912-23.571-8.754-5.062-7.842-4.39-18.096 1.653-25.202 6.043-7.106 16.016-9.371 24.511-5.566a1.497 1.497 0 0 0 1.98-.764 1.51 1.51 0 0 0-.759-1.99C24.059-1.52 12.662 1.07 5.756 9.19c-6.906 8.122-7.675 19.841-1.89 28.804 5.785 8.962 16.746 13.032 26.939 10.003C40.998 44.968 47.994 35.561 48 24.877v-2.08c0-.833-.672-1.508-1.5-1.508s-1.5.675-1.5 1.507z"/>
        <path fill="#3BAD6A" d="M24 27.29l-5.69-5.718a1.495 1.495 0 0 0-2.12 0 1.513 1.513 0 0 0 0 2.132l6.75 6.785a1.495 1.495 0 0 0 2.121 0l22.5-22.639a1.513 1.513 0 0 0 0-2.132 1.495 1.495 0 0 0-2.122.001l-21.44 21.57z"/>
    </g>
</svg>
