<svg xmlns="http://www.w3.org/2000/svg" width="60" height="60" viewBox="0 0 60 60">
    <g fill="none" fill-rule="nonzero">
        <path fill="#FFF" d="M0 0h60v60H0z"/>
        <path fill="#1C3D6F" d="M17.72 15a5 5 0 0 0-3.62-1.53h-.26A5 5 0 0 0 10.22 15a4.69 4.69 0 0 0-1.31 3.4L9 20.68a4.85 4.85 0 0 0 4.93 4.57H14a4.86 4.86 0 0 0 4.93-4.57L19 18.4a4.65 4.65 0 0 0-1.28-3.4zm-.48 5.65A3.16 3.16 0 0 1 14 23.56h-.06a3.16 3.16 0 0 1-3.24-2.95v-.69a7.59 7.59 0 0 0 4.41-1.66 3.72 3.72 0 0 0 2.2 1.54l-.07.85zm-1-4a.85.85 0 0 0-1.58-.32s-1 1.68-4 1.93a3 3 0 0 1 .84-2.1 3.38 3.38 0 0 1 2.4-1h.26c.901 0 1.765.36 2.4 1a3 3 0 0 1 .82 1.9 2 2 0 0 1-1.19-1.44l.05.03z"/>
        <path fill="#56C2F0" d="M50.63 35.21A5.05 5.05 0 0 0 47 33.68h-.26a5 5 0 0 0-3.61 1.53 4.61 4.61 0 0 0-1.31 3.44l.09 2.28a4.86 4.86 0 0 0 4.93 4.57h.07a4.86 4.86 0 0 0 4.92-4.57l.11-2.28a4.69 4.69 0 0 0-1.31-3.44zm-.38 3.38l-.1 2.26a3.18 3.18 0 0 1-3.24 3h-.07a3.17 3.17 0 0 1-3.24-3l-.1-2.27a3 3 0 0 1 .84-2.2 3.34 3.34 0 0 1 2.4-1H47a3.35 3.35 0 0 1 2.41 1 3 3 0 0 1 .84 2.21z"/>
        <path fill="#1C3D6F" d="M30.75 16.42a2.34 2.34 0 0 0-3.24 0l-9.42 9.42a.86.86 0 0 1-.6.25H8.91a4.22 4.22 0 0 0-4.22 4.22v11.81a2.53 2.53 0 0 0 2.53 2.53c.286 0 .57-.048.84-.14v1a.85.85 0 0 0 .85.84H19a.85.85 0 0 0 .85-.84V31.82a.87.87 0 0 1 .22-.58l10.74-11.51a2.35 2.35 0 0 0-.06-3.31zm-1.15 2.13L18.86 30.09a2.57 2.57 0 0 0-.67 1.73v12.83H9.75V32a.85.85 0 1 0-1.69 0v10.12a.84.84 0 1 1-1.68 0V30.31a2.53 2.53 0 0 1 2.53-2.53h8.58a2.54 2.54 0 0 0 1.79-.78l9.42-9.42a.65.65 0 1 1 .9.93v.04z"/>
        <path fill="#1C3D6F" d="M14 28.62a.84.84 0 0 0-.84.84v10.13a.84.84 0 1 0 1.68 0V29.46a.84.84 0 0 0-.84-.84z"/>
        <path fill="#56C2F0" d="M32.06 35.21a5 5 0 0 0-3.62-1.53h-.26a5 5 0 0 0-3.62 1.53 4.69 4.69 0 0 0-1.31 3.44l.1 2.28a4.86 4.86 0 0 0 4.93 4.57h.06a4.86 4.86 0 0 0 4.93-4.57l.1-2.28a4.65 4.65 0 0 0-1.31-3.44zm-.37 3.38l-.1 2.26a3.18 3.18 0 0 1-3.25 3h-.06a3.17 3.17 0 0 1-3.24-3l-.1-2.27a3 3 0 0 1 .84-2.2 3.34 3.34 0 0 1 2.4-1h.26a3.33 3.33 0 0 1 2.4 1 3 3 0 0 1 .85 2.21zM32.67 46.34H24a4.08 4.08 0 0 0-4.07 4.08v3.51a.84.84 0 1 0 1.68 0v-3.51A2.39 2.39 0 0 1 24 48h8.72a2.39 2.39 0 0 1 2.39 2.39v3.51a.85.85 0 1 0 1.69 0v-3.48a4.08 4.08 0 0 0-4.13-4.08zM51.23 46.34h-8.72a4.08 4.08 0 0 0-4.07 4.08v3.51a.84.84 0 1 0 1.68 0v-3.51A2.4 2.4 0 0 1 42.51 48h8.72a2.39 2.39 0 0 1 2.39 2.39v3.51a.85.85 0 1 0 1.69 0v-3.48a4.08 4.08 0 0 0-4.08-4.08z"/>
        <path fill="#1C3D6F" d="M52.82 4.15H23.21a2.52 2.52 0 0 0-2.49 2.54v12.65a.85.85 0 0 0 1.69 0V9.22h31.21v20.24a.82.82 0 0 1-.8.85H24A.85.85 0 0 0 24 32h28.82a2.52 2.52 0 0 0 2.49-2.54V6.69a2.52 2.52 0 0 0-2.49-2.54zm.8 3.38H22.41v-.84a.82.82 0 0 1 .8-.85h29.61a.82.82 0 0 1 .8.85v.84z"/>
        <path fill="#1C3D6F" d="M51.09 14.91a.85.85 0 0 0-.84.84v12a.85.85 0 0 0 1.69 0v-12a.85.85 0 0 0-.85-.84zM47.72 20.18a.85.85 0 0 0-.85.85v6.75a.85.85 0 0 0 1.69 0V21a.85.85 0 0 0-.84-.82zM44.34 18.5a.84.84 0 0 0-.84.84v8.44a.85.85 0 0 0 1.69 0v-8.44a.84.84 0 0 0-.85-.84zM41 23.56a.85.85 0 0 0-.85.84v3.38a.85.85 0 0 0 1.69 0V24.4a.85.85 0 0 0-.84-.84z"/>
        <path fill="#1C3D6F" d="M51.56 11.05a.84.84 0 0 0-1.17.23l-2.88 4.32-2.66-2a.84.84 0 0 0-1.18.17l-.09.13-3.28 6.57-3.21 2.41a.84.84 0 0 0 1 1.35l3.37-2.53a.89.89 0 0 0 .26-.29l2.92-5.85 2.56 1.92a.84.84 0 0 0 1.18-.16l3.37-5.06a.84.84 0 0 0-.19-1.21zM35.06 10.9H24.94a.85.85 0 1 0 0 1.69h10.12a.85.85 0 1 0 0-1.69zM40.12 10.9h-1.68a.85.85 0 1 0 0 1.69h1.68a.85.85 0 1 0 0-1.69z"/>
    </g>
</svg>
