<svg xmlns="http://www.w3.org/2000/svg" width="151" height="36" viewBox="0 0 151 36">
    <g fill="none" fill-rule="evenodd">
        <path fill="#1A1919" d="M58.862 26.342L56.782 36H52l7.901-35h5.666L73 36h-4.834l-2.028-9.658h-7.276zm6.705-3.895l-1.612-8.361c-.468-2.389-.936-5.504-1.299-7.997h-.208c-.363 2.545-.884 5.764-1.351 7.997l-1.664 8.36h6.134zM90.798 0v29.16c0 1.903.101 4.68.202 6.429h-4.086l-.303-3.035h-.151C85.653 34.303 83.786 36 81.315 36 76.775 36 74 30.96 74 23.195c0-8.847 3.683-13.013 7.567-13.013 1.967 0 3.53.927 4.388 2.83h.101V0h4.742zm-4.742 20.109c0-.463 0-1.029-.05-1.543-.253-2.263-1.514-4.218-3.228-4.218-2.977 0-3.985 4.218-3.985 8.847 0 5.143 1.31 8.742 3.833 8.742 1.06 0 2.472-.566 3.279-3.549.1-.411.151-1.028.151-1.593v-6.686zM102.425 36C97.53 36 94 31.701 94 23.052 94 13.885 98.187 10 102.677 10c4.842 0 8.323 4.454 8.323 12.949C111 32.944 106.207 36 102.475 36h-.05zm.151-3.833c2.925 0 3.581-5.334 3.581-9.167 0-3.78-.656-9.167-3.682-9.167-3.128 0-3.733 5.386-3.733 9.167 0 4.196.706 9.167 3.784 9.167h.05zM114.202 0h4.741v13.423h.1c1.262-2.262 2.977-3.24 5.147-3.24 4.187 0 6.81 4.834 6.81 12.497 0 8.948-3.582 13.32-7.618 13.32-2.421 0-3.783-1.337-4.843-3.549h-.2l-.253 3.138H114c.1-1.698.202-4.526.202-6.43V0zm4.741 26.742c0 .567.05 1.133.202 1.544.757 3.034 2.22 3.65 3.178 3.65 2.825 0 3.884-3.805 3.884-8.947 0-4.783-1.11-8.64-3.934-8.64-1.564 0-2.825 1.902-3.179 3.702a9.65 9.65 0 0 0-.151 1.698v6.993zM138.857 24.528c.053 6.261 2.903 7.815 5.913 7.815 1.795 0 3.326-.401 4.435-.902l.739 3.407c-1.531.751-3.854 1.152-6.124 1.152-6.44 0-9.82-4.61-9.82-12.124C134 15.91 137.853 11 143.186 11S151 15.86 151 21.972c0 1.203-.053 1.954-.106 2.605l-12.037-.05zm7.444-3.357c.053-4.31-1.531-6.614-3.484-6.614-2.588 0-3.748 3.557-3.907 6.614h7.391z"/>
        <path fill="#D82332" d="M24 1h15v35L24 1M15 1H0v35L15 1M20.512 14L30 36h-6.218l-2.837-7.007H14L20.512 14"/>
        <path fill="#1A1919" d="M150.007 11a.99.99 0 0 1 .993.998.99.99 0 0 1-.998 1.002.997.997 0 0 1-1.002-1.002c0-.555.45-.998 1.002-.998h.005zm-.005.155c-.445 0-.809.377-.809.843 0 .474.364.847.814.847.449.004.808-.373.808-.843s-.359-.847-.808-.847h-.005zm-.188 1.424h-.18v-1.114c.094-.013.184-.027.32-.027.17 0 .282.037.35.085.067.049.103.124.103.23 0 .147-.1.236-.22.272v.008c.098.018.166.107.188.27.027.174.054.24.072.276h-.188c-.028-.036-.055-.137-.077-.284-.027-.142-.099-.195-.243-.195h-.125v.48zm0-.617h.13c.148 0 .274-.053.274-.19 0-.098-.072-.196-.274-.196a.85.85 0 0 0-.13.01v.376zM41.007 1a.99.99 0 0 1 .993.998A.99.99 0 0 1 41.002 3 .997.997 0 0 1 40 1.998c0-.555.45-.998 1.002-.998h.005zm-.005.155c-.445 0-.809.377-.809.843 0 .474.364.847.814.847.449.004.81-.373.81-.843s-.361-.847-.81-.847h-.005zm-.188 1.424h-.18V1.465c.094-.013.184-.026.32-.026.17 0 .282.035.35.084.067.049.103.125.103.23 0 .147-.1.236-.22.272v.008c.098.018.166.107.189.27.026.174.053.24.071.276h-.188c-.028-.036-.055-.137-.077-.284-.027-.142-.099-.195-.243-.195h-.125v.48zm0-.617h.13c.148 0 .274-.053.274-.19 0-.098-.071-.196-.274-.196a.85.85 0 0 0-.13.01v.376z"/>
    </g>
</svg>
