<svg xmlns="http://www.w3.org/2000/svg" width="191" height="37" viewBox="0 0 191 37">
    <g fill="none" fill-rule="evenodd">
        <path fill="#F90" d="M77.478 28.57C70.393 34.067 60.125 37 51.284 37c-12.396 0-23.555-4.827-31.998-12.854-.663-.632-.069-1.492.727-1 9.111 5.58 20.377 8.938 32.014 8.938 7.849 0 16.482-1.71 24.421-5.257 1.2-.536 2.202.827 1.03 1.743"/>
        <path fill="#F90" d="M78.763 25.21c-.892-1.162-5.923-.549-8.18-.277-.688.085-.793-.522-.174-.96 4.007-2.862 10.58-2.036 11.347-1.076.767.964-.2 7.655-3.964 10.849-.578.49-1.13.229-.872-.422.846-2.143 2.741-6.946 1.843-8.114"/>
        <path fill="#221F1F" d="M70.758 4.427V1.692c0-.414.342-.692.753-.692h13.32c.428 0 .77.283.77.692v2.342c-.006.393-.365.906-1.003 1.719l-6.903 9.06c2.565-.058 5.273.293 7.598 1.498.525.273.667.671.707 1.064v2.919c0 .398-.479.864-.98.623-4.099-1.975-9.542-2.19-14.074.021-.461.23-.946-.23-.946-.629v-2.771c0-.446.006-1.206.49-1.882l7.997-10.543h-6.96c-.427 0-.769-.277-.769-.686M25.375 20h-3.712c-.355-.025-.637-.282-.663-.608V1.046c0-.367.318-.659.715-.659h3.461c.36.015.648.282.674.614v2.398h.068C26.82 1.08 28.518 0 30.804 0c2.323 0 3.774 1.08 4.818 3.399C36.52 1.08 38.562 0 40.75 0c1.556 0 3.257.618 4.296 2.006 1.175 1.544.935 3.786.935 5.752l-.005 11.578c0 .367-.319.664-.716.664h-3.706c-.37-.025-.668-.312-.668-.664V9.613c0-.774.073-2.705-.105-3.439-.276-1.232-1.107-1.579-2.182-1.579-.898 0-1.838.578-2.219 1.504-.38.925-.344 2.473-.344 3.514v9.723c0 .367-.319.664-.715.664h-3.707c-.376-.025-.668-.312-.668-.664l-.005-9.723c0-2.046.35-5.058-2.287-5.058-2.667 0-2.563 2.936-2.563 5.058v9.723c0 .367-.319.664-.715.664M96.423 0C102.637 0 106 4.693 106 10.66c0 5.766-3.716 10.34-9.577 10.34C90.322 21 87 16.307 87 10.459 87 4.574 90.363 0 96.423 0m.036 3.86c-3.086 0-3.28 3.698-3.28 6.003 0 2.31-.042 7.242 3.244 7.242 3.246 0 3.399-3.979 3.399-6.403 0-1.595-.077-3.502-.625-5.014-.47-1.316-1.407-1.829-2.738-1.829M111.871 20h-4.12c-.413-.025-.745-.312-.745-.664L107 .986c.035-.337.378-.599.797-.599h3.836c.36.015.657.226.739.513v2.805h.075C113.606 1.197 115.23 0 118.087 0c1.857 0 3.667.578 4.83 2.162C124 3.63 124 6.099 124 7.873v11.549c-.047.322-.39.578-.797.578h-4.15c-.378-.025-.693-.266-.733-.578V9.457c0-2.006.267-4.942-2.59-4.942a2.719 2.719 0 0 0-2.392 1.468c-.582 1.121-.658 2.237-.658 3.474v9.88c-.006.366-.366.663-.809.663M126 18.496A2.496 2.496 0 0 1 128.5 16c1.379 0 2.5 1.113 2.5 2.496A2.508 2.508 0 0 1 128.5 21a2.508 2.508 0 0 1-2.5-2.504M166.718 21c-.402-.016-.718-.315-.718-.693V1.155c.022-.341.321-.61.691-.63h1.42c.393 0 .708.273.741.63v2.792C169.865 1.732 171.748 0 174.126 0h.289c2.525 0 4.37 1.795 5.057 4.404C180.544 1.827 182.558 0 185.214 0H185.508c1.878 0 3.685 1.165 4.621 2.94.904 1.695.87 3.952.87 5.846l-.005 11.521c.006.368-.304.667-.69.693h-1.7c-.37-.016-.669-.268-.718-.598V8.786c0-1.37.071-2.823-.506-4.073-.588-1.275-1.714-2.073-2.923-2.13-1.35.062-2.59 1.012-3.396 2.293-1.045 1.653-1.007 3.144-1.007 5.076v10.46c-.05.315-.338.562-.691.588h-1.688c-.402-.016-.724-.315-.724-.693l-.01-12.287c0-1.128-.071-2.456-.61-3.47-.626-1.154-1.747-1.91-2.923-1.968-1.22.069-2.45.966-3.179 2.01-.941 1.334-1.121 2.982-1.121 4.677v11.038c0 .368-.31.667-.697.693h-1.693M154.536 21C148.64 21 146 15.7 146 10.4c0-5.574 3.102-10.4 9.038-10.4h.315C161.126 0 164 5.14 164 10.44c0 5.615-3.184 10.56-9.155 10.56h-.309m.432-2.57c1.94-.057 3.47-1.118 4.376-2.885.812-1.586.97-3.404.97-5.145 0-1.896-.234-3.874-1.245-5.496-.905-1.417-2.46-2.318-4.107-2.37-1.834.057-3.476 1.154-4.3 2.843-.742 1.463-.97 3.405-.97 5.023 0 1.818.27 3.92 1.122 5.5a4.957 4.957 0 0 0 4.154 2.53"/>
        <path fill="#221F1F" d="M138.282 18.347c2.591-.072 3.952-1.942 4.513-4.362.114-.304.372-.536.75-.536l1.71-.005c.405.015.777.293.743.633-.79 4.126-3.552 6.923-7.487 6.923h-.31c-5.73 0-8.201-5.182-8.201-10.44C130 5.34 132.505 0 138.236 0h.309c3.981 0 6.818 2.76 7.436 6.887 0 .309-.32.577-.698.613l-1.79-.021a.787.787 0 0 1-.681-.66c-.429-2.302-1.899-4.135-4.347-4.208-3.895.114-5.005 4.43-5.005 7.752 0 3.2.927 7.871 4.822 7.984M61.714 11.733c0 1.431.039 2.625-.744 3.897-.632 1.034-1.638 1.67-2.75 1.67-1.527 0-2.422-1.076-2.422-2.663 0-3.132 3.036-3.7 5.916-3.7v.796m4.009 8.957c-.263.217-.643.232-.94.088-1.32-1.013-1.56-1.484-2.281-2.45-2.18 2.057-3.73 2.672-6.553 2.672C52.6 21 50 19.093 50 15.273c0-2.982 1.744-5.013 4.238-6.006 2.158-.878 5.172-1.033 7.476-1.276v-.476c0-.873.072-1.907-.487-2.662-.48-.677-1.409-.956-2.23-.956-1.516 0-2.863.719-3.193 2.207-.067.33-.33.657-.694.672l-3.852-.382c-.324-.068-.688-.31-.593-.77C51.55 1.301 55.775 0 59.555 0c1.935 0 4.462.476 5.989 1.83 1.934 1.67 1.75 3.897 1.75 6.32v5.728c0 1.72.771 2.475 1.498 3.406.252.33.308.729-.017.977-.81.625-2.253 1.788-3.047 2.44l-.005-.011M11.71 11.733c0 1.431.04 2.625-.743 3.897-.631 1.034-1.632 1.67-2.75 1.67-1.526 0-2.415-1.076-2.415-2.663 0-3.132 3.035-3.7 5.909-3.7v.796m4.007 8.957c-.262.217-.642.232-.939.088-1.319-1.013-1.554-1.484-2.28-2.45C10.319 20.385 8.776 21 5.948 21 2.605 21 0 19.093 0 15.273c0-2.982 1.75-5.013 4.237-6.006 2.158-.878 5.17-1.033 7.474-1.276v-.476c0-.873.072-1.907-.481-2.662-.486-.677-1.414-.956-2.23-.956-1.515 0-2.868.719-3.198 2.207-.067.33-.33.657-.687.672l-3.857-.382c-.325-.068-.682-.31-.593-.77C1.554 1.301 5.775 0 9.553 0c1.934 0 4.46.476 5.987 1.83 1.934 1.67 1.75 3.897 1.75 6.32v5.728c0 1.72.77 2.475 1.497 3.406.257.33.313.729-.01.977-.811.625-2.254 1.788-3.047 2.44l-.012-.011"/>
    </g>
</svg>
