<svg xmlns="http://www.w3.org/2000/svg" width="135" height="47" viewBox="0 0 135 47">
    <g fill="#000" fill-rule="nonzero">
        <path d="M38.183 36.627a25.666 25.666 0 0 1-2.49 4.543c-1.309 1.895-2.38 3.206-3.206 3.934-1.28 1.196-2.653 1.808-4.122 1.843-1.054 0-2.326-.305-3.806-.923-1.486-.615-2.85-.92-4.099-.92-1.309 0-2.713.305-4.214.92-1.504.618-2.715.94-3.642.972-1.408.06-2.813-.569-4.214-1.892-.895-.792-2.014-2.15-3.354-4.073-1.438-2.054-2.62-4.436-3.547-7.151C.497 30.947 0 28.107 0 25.357c0-3.15.67-5.867 2.013-8.143 1.056-1.829 2.46-3.271 4.217-4.33a11.218 11.218 0 0 1 5.701-1.633c1.12 0 2.587.351 4.41 1.042 1.818.693 2.986 1.044 3.498 1.044.382 0 1.68-.41 3.878-1.23 2.08-.76 3.834-1.074 5.271-.95 3.896.32 6.822 1.878 8.769 4.686-3.484 2.143-5.207 5.144-5.173 8.994.031 3 1.103 5.495 3.21 7.476.954.92 2.02 1.63 3.206 2.136a35.51 35.51 0 0 1-.817 2.178zM29.249.94c0 2.35-.846 4.545-2.533 6.577-2.034 2.415-4.496 3.81-7.165 3.59a7.426 7.426 0 0 1-.054-.89c0-2.257.968-4.672 2.687-6.647.858-1 1.949-1.83 3.272-2.494C26.776.423 28.026.062 29.2 0c.034.314.049.628.049.94zM64.284 24.316h-4.046c-.816 0-.918.034-1.122.68L57.79 28.94c-.204.68-.238.952-.238 1.224 0 .204.442.408 1.394.578l1.02.17c.204.238.272 1.02-.068 1.19-1.19-.068-2.414-.068-3.842-.102-1.156 0-1.938.102-3.502.102-.374-.204-.34-.918-.102-1.19l.918-.102c.816-.102 1.496-.374 2.074-1.7.578-1.36 1.224-2.992 2.142-5.44l3.094-8.296c.782-2.142 1.36-3.332 1.258-4.318 1.632-.374 2.89-2.04 2.958-2.04.442 0 .646.17.782.68.272.986.68 2.244 1.53 4.658l4.624 13.328c.714 2.04 1.02 2.822 2.278 3.026l1.292.204c.204.17.272.986-.034 1.19A129.39 129.39 0 0 0 70.132 32c-1.7 0-3.026.034-4.59.102-.374-.204-.442-.918-.068-1.19l1.088-.17c.782-.136.918-.374.918-.578 0-.238-.238-1.054-.646-2.312l-.918-2.924c-.17-.544-.442-.612-1.632-.612zm-3.366-1.802h3.196c.782 0 .952-.102.68-.986l-.884-2.754c-.476-1.462-1.088-3.298-1.394-4.012-.272.782-.952 2.618-1.462 4.182l-.85 2.55c-.306.918-.136 1.02.714 1.02zm15.776 14.212V22.922c0-1.36 0-1.768-.646-2.176l-.476-.306c-.238-.204-.238-.816 0-1.02 1.394-.408 3.944-1.496 4.896-2.142a.714.714 0 0 1 .714.408c-.068.408-.068.782-.068 1.122 0 .238.136.442.272.476 1.02-.51 2.516-1.36 4.318-1.36 3.604 0 5.78 2.822 5.78 6.494 0 4.76-3.366 8.058-8.33 8.058-.476 0-1.224-.034-1.53-.102-.306.068-.51.272-.51.986v3.366c0 2.38.136 2.652 1.258 2.754l1.156.102c.272.204.272.986-.034 1.19-1.7-.068-3.06-.102-4.658-.102-1.496 0-2.822.034-4.046.102-.306-.204-.306-.986-.034-1.19l.68-.068c1.122-.102 1.258-.408 1.258-2.788zm4.42-14.008v5.44c0 .748.272 1.462.782 1.972.442.476 1.088.782 1.632.782 2.108 0 3.264-2.244 3.264-5.406 0-3.332-1.632-5.236-3.876-5.236-.578 0-1.156.136-1.428.476-.17.204-.374.646-.374 1.972zm14.042 14.008V22.922c0-1.36 0-1.768-.646-2.176l-.476-.306c-.238-.204-.238-.816 0-1.02 1.394-.408 3.944-1.496 4.896-2.142a.714.714 0 0 1 .714.408c-.068.408-.068.782-.068 1.122 0 .238.136.442.272.476 1.02-.51 2.516-1.36 4.318-1.36 3.604 0 5.78 2.822 5.78 6.494 0 4.76-3.366 8.058-8.33 8.058-.476 0-1.224-.034-1.53-.102-.306.068-.51.272-.51.986v3.366c0 2.38.136 2.652 1.258 2.754l1.156.102c.272.204.272.986-.034 1.19-1.7-.068-3.06-.102-4.658-.102-1.496 0-2.822.034-4.046.102-.306-.204-.306-.986-.034-1.19l.68-.068c1.122-.102 1.258-.408 1.258-2.788zm4.42-14.008v5.44c0 .748.272 1.462.782 1.972.442.476 1.088.782 1.632.782 2.108 0 3.264-2.244 3.264-5.406 0-3.332-1.632-5.236-3.876-5.236-.578 0-1.156.136-1.428.476-.17.204-.374.646-.374 1.972zm14.008 5.338v-14.96c0-1.36 0-1.734-.68-2.142l-.578-.34c-.238-.204-.238-.816 0-1.02 1.462-.34 3.502-1.156 5.202-1.904.204 0 .442.068.578.238a97.347 97.347 0 0 0-.102 4.964v15.164c0 2.38.136 2.652 1.326 2.788l.578.068c.272.204.272.986-.034 1.19a70.642 70.642 0 0 0-4.08-.102c-1.462 0-2.89.034-4.08.102-.306-.204-.306-.986-.034-1.19l.646-.068c1.122-.102 1.258-.408 1.258-2.788zm19.516-4.114h-6.528c-.782 0-.85.068-.85.612 0 2.55 1.632 5.032 4.794 5.032.952 0 2.244-.204 3.162-1.768a.768.768 0 0 1 .884.782c-1.394 2.89-3.91 3.876-5.95 3.876-4.59 0-7.072-3.23-7.072-6.936 0-4.284 3.094-7.616 7.344-7.616 3.536 0 5.44 2.278 5.44 4.896 0 .646-.17 1.122-1.224 1.122zm-5.542-1.496h1.258c.476 0 1.02-.068 1.394-.306.17-.102.238-.442.238-.782 0-1.122-.646-1.87-1.802-1.87-1.428 0-2.652 1.36-2.652 2.448 0 .476.476.51 1.564.51z"/>
    </g>
</svg>
