<svg xmlns="http://www.w3.org/2000/svg" xmlns:xlink="http://www.w3.org/1999/xlink" width="188" height="32" viewBox="0 0 188 32">
    <defs>
        <path id="a" d="M.103 31.944H188V.084H.103v31.86z"/>
        <path id="c" d="M.103.085H188v31.859H.103z"/>
        <path id="e" d="M.103 31.944H188V.084H.103v31.86z"/>
        <path id="g" d="M.103 31.317H187.96V.126H.103z"/>
        <path id="i" d="M.103.085H188v31.859H.103z"/>
        <path id="k" d="M.103 31.944H188V.084H.103v31.86z"/>
        <path id="m" d="M.103.085H188v31.859H.103z"/>
    </defs>
    <g fill="none" fill-rule="evenodd">
        <g transform="matrix(1 0 0 -1 0 32)">
            <mask id="b" fill="#fff">
                <use xlink:href="#a"/>
            </mask>
            <g mask="url(#b)">
                <mask id="d" fill="#fff">
                    <use xlink:href="#c"/>
                </mask>
                <g fill-rule="nonzero" mask="url(#d)">
                    <path fill="#273B7D" d="M73.788 28.456a2.855 2.855 0 1 0 5.71 0c0-1.579-1.283-2.86-2.86-2.86a2.856 2.856 0 0 0-2.85 2.86"/>
                    <path fill="#499FDD" d="M118.836 9.43a2.856 2.856 0 0 0 2.85 2.862 2.861 2.861 0 0 0 0-5.722 2.856 2.856 0 0 0-2.85 2.86"/>
                    <path fill="#273B7D" d="M26.929 10.666c-2.46 0-4.168 1.952-4.168 4.74 0 2.788 1.709 4.739 4.168 4.739 2.473 0 4.2-1.95 4.2-4.739 0-2.832-1.691-4.74-4.2-4.74zm0 13.645c-5.203 0-8.978-3.746-8.978-8.905 0-5.158 3.775-8.903 8.978-8.903 5.221 0 9.013 3.745 9.013 8.903 0 5.159-3.792 8.905-9.013 8.905zM68.258 14.961c-.202.38-.434.702-.681.958l-.157.167.165.158c.239.252.483.55.718.896l4.591 6.82h-5.573l-3.45-5.335c-.194-.286-.589-.43-1.179-.43h-.786V28.28c0 2.017-1.258 2.292-2.616 2.292h-2.326l.004-23.807h4.938v7.141h.463c.562 0 .946-.065 1.122-.37l2.724-5.139c.76-1.394 1.52-1.632 2.946-1.632h3.784l-2.818 4.659-1.87 3.537M92.231 24.349c-2.512 0-4.114-1.115-5.012-2.058l-.3-.303-.106.412c-.264 1.01-1.153 1.566-2.492 1.566h-2.213l.014-17.195h4.905v7.925c0 .775.1 1.447.305 2.06.546 1.857 2.07 3.012 3.973 3.012 1.53 0 2.129-.808 2.129-2.894V9.385c0-1.78.824-2.614 2.608-2.614h2.334l-.008 10.936c0 4.345-2.12 6.642-6.135 6.642M76.702 23.958h-2.324l.016-13.295h-.002V6.767h2.481c.032 0 .057-.003.088-.003l1.156.003h1.15v.007h.008l.01 14.574c0 1.758-.841 2.61-2.581 2.61M46.194 10.666c-2.459 0-4.171 1.952-4.171 4.74 0 2.788 1.712 4.739 4.17 4.739 2.469 0 4.201-1.95 4.201-4.739 0-2.832-1.691-4.74-4.2-4.74zm0 13.645c-5.208 0-8.984-3.746-8.984-8.905 0-5.158 3.776-8.903 8.984-8.903 5.216 0 9.013 3.745 9.013 8.903 0 5.159-3.797 8.905-9.013 8.905z"/>
                </g>
            </g>
        </g>
        <g transform="matrix(1 0 0 -1 0 32)">
            <mask id="f" fill="#fff">
                <use xlink:href="#e"/>
            </mask>
            <g mask="url(#f)">
                <mask id="h" fill="#fff">
                    <use xlink:href="#g"/>
                </mask>
                <g mask="url(#h)">
                    <mask id="j" fill="#fff">
                        <use xlink:href="#i"/>
                    </mask>
                    <g fill-rule="nonzero" mask="url(#j)">
                        <path fill="#499FDD" d="M151.326 10.666c-2.458 0-4.172 1.952-4.172 4.74 0 2.788 1.714 4.739 4.172 4.739 2.468 0 4.201-1.95 4.201-4.739 0-2.832-1.692-4.74-4.201-4.74zm0 13.645c-5.207 0-8.983-3.746-8.983-8.905 0-5.158 3.776-8.903 8.983-8.903 5.216 0 9.013 3.745 9.013 8.903 0 5.159-3.797 8.905-9.013 8.905z"/>
                        <path fill="#273B7D" d="M108.71 11.423c-2.682 0-3.637 2.338-3.637 4.528 0 .966.245 4.112 3.379 4.112 1.557 0 3.633-.446 3.633-4.274 0-3.61-1.837-4.366-3.376-4.366zm5.921 12.581c-.93 0-1.647-.37-2.006-1.048l-.135-.263-.228.198c-.791.684-2.21 1.496-4.516 1.496-4.586 0-7.674-3.442-7.674-8.564 0-5.117 3.195-8.692 7.766-8.692 1.562 0 2.796.364 3.774 1.104l.378.284V8.04c0-2.297-1.486-3.564-4.18-3.564-1.31 0-2.501.319-3.298.608-1.04.314-1.65.054-2.072-.99l-.39-.962-.55-1.406.34-.181c1.725-.915 3.97-1.46 5.998-1.46 4.178 0 9.055 2.136 9.055 8.149l.018 15.77h-2.279z"/>
                    </g>
                </g>
            </g>
        </g>
        <g transform="matrix(1 0 0 -1 0 32)">
            <mask id="l" fill="#fff">
                <use xlink:href="#k"/>
            </mask>
            <g mask="url(#l)">
                <mask id="n" fill="#fff">
                    <use xlink:href="#m"/>
                </mask>
                <g fill-rule="nonzero" mask="url(#n)">
                    <path fill="#273B7D" d="M8.663 10.863l-3.993.004v4.77c0 1.02.395 1.55 1.27 1.672h2.723c1.943 0 3.199-1.225 3.2-3.206-.001-2.034-1.226-3.238-3.2-3.24zM4.67 23.731v1.256c0 1.098.465 1.62 1.486 1.688H8.2c1.752 0 2.802-1.048 2.802-2.8 0-1.338-.719-2.897-2.737-2.897H4.67v2.753zm9.092-4.76l-.722.405.63.538c.733.63 1.961 2.045 1.961 4.49 0 3.743-2.905 6.158-7.4 6.158h-5.13v.001h-.584a2.503 2.503 0 0 1-2.414-2.472V6.851h8.229c4.998 0 8.223 2.72 8.223 6.93 0 2.266-1.042 4.204-2.794 5.19z"/>
                    <path fill="#499FDD" d="M182.249 24.293a6.764 6.764 0 0 1-5.266-2.55l-.355-.45-.279.504c-.908 1.656-2.472 2.496-4.646 2.496-2.28 0-3.809-1.27-4.519-2.027l-.465-.503-.179.662c-.259.952-1.107 1.477-2.393 1.477h-2.061l-.02-17.128h4.684v7.56c0 .663.082 1.318.248 2.004.448 1.827 1.676 3.792 3.742 3.595 1.274-.122 1.896-1.105 1.896-3.005V6.774h4.717v7.56c0 .828.077 1.448.264 2.07.38 1.744 1.662 3.532 3.655 3.532 1.442 0 1.976-.816 1.976-3.008v-7.65c0-1.73.772-2.504 2.502-2.504h2.205l.004 10.934c0 4.368-1.924 6.585-5.711 6.585M139.631 12.72c-.014-.016-2.03-2.14-4.683-2.14-2.418 0-4.86 1.483-4.86 4.792 0 2.857 1.893 4.854 4.604 4.854.88 0 1.882-.315 2.038-.845l.023-.09c.361-1.202 1.454-1.266 1.67-1.266l2.565-.003v2.242c0 2.957-3.763 4.029-6.296 4.029-5.416 0-9.345-3.768-9.345-8.957 0-5.187 3.887-8.95 9.246-8.95 4.65 0 7.179 3.055 7.202 3.085l.135.165-2.032 3.37-.267-.285"/>
                </g>
            </g>
        </g>
    </g>
</svg>
