<svg xmlns="http://www.w3.org/2000/svg" width="107" height="43" viewBox="0 0 107 43">
    <g fill="none" fill-rule="nonzero">
        <path fill="#E53238" d="M13.891 8C6.314 8 0 11.412 0 21.708 0 29.864 4.246 35 14.087 35c11.583 0 12.326-8.1 12.326-8.1H20.8s-1.203 4.362-7.055 4.362c-4.767 0-8.195-3.419-8.195-8.21H27v-3.006C27 15.306 24.166 8 13.891 8zm-.195 3.842c4.537 0 7.63 2.951 7.63 7.373H5.674c0-4.695 4.037-7.373 8.022-7.373z"/>
        <path fill="#0064D2" d="M28.12 0v30.042c0 1.705-.12 4.1-.12 4.1h5.334s.192-1.72.192-3.292c0 0 2.635 4.15 9.802 4.15C50.874 35 56 29.727 56 22.172c0-7.028-4.708-12.68-12.66-12.68-7.446 0-9.76 4.047-9.76 4.047V0h-5.46zm13.843 13.208c5.125 0 8.383 3.828 8.383 8.964 0 5.509-3.763 9.112-8.346 9.112-5.47 0-8.42-4.298-8.42-9.063 0-4.44 2.647-9.013 8.383-9.013z"/>
        <path fill="#F5AF02" d="M68.985 9c-11.476 0-12.212 6.59-12.212 7.642h5.712s.3-3.847 6.106-3.847c3.773 0 6.697 1.811 6.697 5.293v1.24H68.59C59.7 19.328 55 22.055 55 27.59 55 33.036 59.343 36 65.212 36c7.998 0 10.574-4.634 10.574-4.634 0 1.843.136 3.66.136 3.66H81s-.197-2.252-.197-3.693v-12.45c0-8.165-6.28-9.883-11.818-9.883zm6.303 14.045v1.653c0 2.155-1.268 7.513-8.734 7.513-4.089 0-5.842-2.14-5.842-4.621 0-4.515 5.903-4.545 14.576-4.545z"/>
        <path fill="#86B817" d="M77 10h6.286l9.02 18.536 9-18.536H107L90.607 43h-5.973l4.73-9.2z"/>
    </g>
</svg>
