<svg xmlns="http://www.w3.org/2000/svg" width="147" height="49" viewBox="0 0 147 49">
    <g fill="none" fill-rule="nonzero">
        <path fill="#EA4335" d="M63.02 25.687c0 6.952-5.44 12.076-12.114 12.076-6.675 0-12.114-5.124-12.114-12.076 0-7.002 5.439-12.076 12.114-12.076 6.674 0 12.113 5.074 12.113 12.076zm-5.303 0c0-4.345-3.153-7.317-6.811-7.317-3.66 0-6.811 2.972-6.811 7.317 0 4.301 3.152 7.317 6.81 7.317 3.66 0 6.812-3.021 6.812-7.317z"/>
        <path fill="#FBBC05" d="M89.153 25.687c0 6.952-5.44 12.076-12.114 12.076-6.675 0-12.114-5.124-12.114-12.076 0-6.996 5.439-12.076 12.114-12.076 6.675 0 12.114 5.074 12.114 12.076zm-5.303 0c0-4.345-3.152-7.317-6.811-7.317s-6.811 2.972-6.811 7.317c0 4.301 3.152 7.317 6.81 7.317 3.66 0 6.812-3.021 6.812-7.317z"/>
        <path fill="#4285F4" d="M114.197 14.34v21.68c0 8.918-5.26 12.56-11.477 12.56-5.852 0-9.375-3.914-10.703-7.115l4.616-1.922c.823 1.965 2.837 4.285 6.082 4.285 3.98 0 6.446-2.456 6.446-7.078v-1.737h-.185c-1.187 1.465-3.474 2.744-6.36 2.744-6.037 0-11.569-5.26-11.569-12.027 0-6.816 5.532-12.119 11.57-12.119 2.88 0 5.167 1.28 6.359 2.7h.185v-1.965h5.036v-.005zm-4.66 11.39c0-4.252-2.837-7.36-6.446-7.36-3.66 0-6.724 3.108-6.724 7.36 0 4.209 3.065 7.274 6.724 7.274 3.61 0 6.446-3.065 6.446-7.274z"/>
        <path fill="#34A853" d="M122.5 1.633v35.39h-5.172V1.632z"/>
        <path fill="#EA4335" d="M142.655 29.661l4.116 2.744c-1.328 1.966-4.53 5.352-10.061 5.352-6.86 0-11.983-5.303-11.983-12.076 0-7.18 5.167-12.075 11.39-12.075 6.266 0 9.331 4.987 10.333 7.682l.55 1.372-16.143 6.686c1.236 2.422 3.158 3.658 5.853 3.658 2.7 0 4.573-1.328 5.945-3.343zm-12.669-4.344l10.791-4.481c-.593-1.508-2.38-2.559-4.48-2.559-2.696 0-6.447 2.38-6.31 7.04z"/>
        <path fill="#4285F4" d="M19.213 22.545v-5.123h17.265c.169.893.256 1.95.256 3.093 0 3.843-1.051 8.596-4.438 11.983-3.293 3.43-7.502 5.26-13.077 5.26C8.885 37.757.196 29.34.196 19.006.196 8.673 8.886.256 19.219.256c5.717 0 9.789 2.243 12.849 5.167l-3.615 3.615c-2.194-2.058-5.167-3.659-9.24-3.659-7.546 0-13.447 6.082-13.447 13.628s5.901 13.627 13.447 13.627c4.895 0 7.683-1.965 9.468-3.751 1.449-1.448 2.401-3.517 2.777-6.343l-12.245.005z"/>
    </g>
</svg>
