<svg xmlns="http://www.w3.org/2000/svg" width="95" height="37" viewBox="0 0 95 37">
    <path fill="#009C3D" fill-rule="nonzero" d="M75.6 11.656V0h2.363v10.015a14.21 14.21 0 0 0-2.364 1.64zm-4.106 3.505a19.433 19.433 0 0 1 2.364-2.533V0h-2.364v15.16zM44.112 24.42c.058 6.498 5.254 11.75 11.68 11.807a8.467 8.467 0 0 0 3.585-.75v-2.388a9.694 9.694 0 0 1-3.592.75c-5.114-.071-9.241-4.248-9.309-9.42v-2.156c.068-5.174 4.2-9.352 9.316-9.42a9.2 9.2 0 0 1 6.603 2.742 9.411 9.411 0 0 1 2.709 6.678v13.964h2.364v-14.42a11.965 11.965 0 0 0-3.62-8.03 11.582 11.582 0 0 0-12.622-2.307c-4.286 1.845-7.078 6.089-7.104 10.8l-.01 2.15zm35.382-5.722A5.489 5.489 0 0 1 83.321 17a5.121 5.121 0 0 1 3.697 1.524 5.24 5.24 0 0 1 1.51 3.738v2.157a5.242 5.242 0 0 1-1.51 3.737 5.124 5.124 0 0 1-3.697 1.525c-1.412 0-2.778-.782-3.848-2.216a8.646 8.646 0 0 1-1.657-4.478l-1.913 2.381a9.048 9.048 0 0 0 2.633 4.75 7.1 7.1 0 0 0 4.788 1.95c4.179-.001 7.567-3.424 7.574-7.65v-2.156c-.07-4.2-3.42-7.588-7.574-7.66-1.253 0-3.238.457-5.608 2.61-.626.633-2.126 2.147-3.028 3.22-1.525 1.681-3.735 4.214-5.636 6.754v3.733c2.092-2.717 3.297-4.24 5.264-6.535 1.762-2.08 3.942-4.604 5.175-5.7l.003.013zM23.66 14.195v-2.828C21.524 10.21 19.188 9.69 16.09 9.69a12.35 12.35 0 0 0-8.438 3.297 10.752 10.752 0 0 0-3.544 7.897v.772c0 6.172 4.897 11.194 10.915 11.194 4.897 0 6.907-1.622 7.42-2.131v-7.185h-7.993v2.394h5.786v3.597h-.019c-.745.297-2.292.924-5.188.924a8.382 8.382 0 0 1-6.065-2.545 8.867 8.867 0 0 1-2.505-6.25v-.774c0-4.768 4.406-8.8 9.619-8.8 3.604 0 5.736.593 7.568 2.113l.013.003zm17.208 2.809a5.123 5.123 0 0 1 2.264.446c.287-.726.634-1.428 1.037-2.096-.642-.469-2.173-.747-3.3-.747-4.315 0-7.569 3.293-7.569 7.66V36.23h2.361V22.266c0-3.1 2.142-5.262 5.207-5.262zM0 20.883v.772a15.412 15.412 0 0 0 4.384 10.893A14.78 14.78 0 0 0 15.03 37c3.25 0 6.13-.741 8.56-2.217 2.001-1.206 2.89-2.428 2.969-2.533V19.38H14.451v2.393h9.735v9.74c-1.14 1.156-3.846 3.088-9.153 3.088A12.454 12.454 0 0 1 6.02 30.84a13.06 13.06 0 0 1-3.642-9.183v-.772c0-3.319 1.478-6.63 4.07-9.078a14.006 14.006 0 0 1 9.666-3.876c3.354 0 5.693.516 7.568 1.665V6.91c-1.953-.842-4.29-1.219-7.568-1.219-8.72 0-16.09 6.966-16.09 15.199L0 20.883zM63.385 36.24V22.276c0-4.229-3.39-7.657-7.572-7.657-4.181 0-7.57 3.428-7.57 7.657v2.144c.057 4.203 3.413 7.597 7.57 7.653 1.125 0 2.656-.279 3.592-1.058v-2.533a5.84 5.84 0 0 1-3.592 1.194 5.124 5.124 0 0 1-3.708-1.515 5.242 5.242 0 0 1-1.52-3.741v-2.157c0-2.908 2.33-5.266 5.207-5.266 2.875 0 5.207 2.358 5.207 5.266v13.964l2.386.013zM40.906 12.856a8.358 8.358 0 0 1 4.252 1.067 21.34 21.34 0 0 1 1.628-1.796c-1.327-1.025-3.572-1.662-5.88-1.662-3.285 0-6.262 1.197-8.398 3.372-2.135 2.176-3.278 5.155-3.278 8.439V36.24h2.36V22.276c0-5.545 3.833-9.42 9.316-9.42zm50.669 1.098a11.521 11.521 0 0 0-8.23-3.483 11.108 11.108 0 0 0-5.76 1.688c-2.574 1.732-4.697 3.616-8.505 8.594v3.578c3.235-4.256 6.294-7.6 8.617-9.461a9.156 9.156 0 0 1 9.787-1.054c3.19 1.581 5.202 4.873 5.174 8.466v2.138c-.019 5.192-4.178 9.396-9.312 9.413-4.116 0-7.72-2.792-8.79-6.81l-1.668 2.045c1.215 4.116 5.61 7.16 10.458 7.16 6.417-.068 11.6-5.319 11.654-11.808v-2.157a11.782 11.782 0 0 0-3.444-8.321l.019.012z"/>
</svg>
