<svg xmlns="http://www.w3.org/2000/svg" width="92" height="60" viewBox="0 0 92 60">
    <g fill="#0071C5" fill-rule="nonzero">
        <path d="M91.593 17.043c-4.312-20.82-45.19-22.14-71.538-6.278v1.753C46.375-.866 83.709-.779 87.109 18.395c1.14 6.345-2.475 12.955-8.932 16.762v4.975c7.765-2.816 15.73-11.928 13.416-23.09M43.699 53.486c-18.175 1.658-37.124-.955-39.78-15.001-1.3-6.927 1.896-14.272 6.128-18.836v-2.44C2.423 23.82-1.71 32.189.674 42.07c3.04 12.68 19.298 19.86 44.119 17.476 9.825-.942 22.675-4.07 31.616-8.923V43.73c-8.116 4.78-21.531 8.733-32.71 9.756"/>
        <path d="M75 14h-4.801v20.653c0 2.42 1.21 4.526 4.801 4.863V14zm-57.183 7.541h-4.812L13 35.034c0 2.43 1.218 4.531 4.817 4.864V21.54zm-4.812-2.517h4.798v-4.399h-4.798v4.399zm33.571 20.662c-3.884 0-5.527-2.612-5.527-5.184V16.585h4.756v4.952h3.585v3.716h-3.585v8.965c0 1.051.514 1.632 1.648 1.632h1.937v3.836h-2.814zm12.63-14.65c-1.63 0-2.878.81-3.41 1.902-.308.656-.423 1.17-.455 1.977h7.332c-.092-1.977-1.02-3.88-3.467-3.88zM55.34 32.05c0 2.35 1.52 4.084 4.215 4.084 2.112 0 3.153-.568 4.375-1.734l2.943 2.709C64.987 38.909 63.008 40 59.523 40c-4.558 0-8.921-2.398-8.921-9.4 0-5.986 3.816-9.368 8.815-9.368 5.084 0 8.004 3.959 8.004 9.16v1.658H55.34h.001zm-24.595-6.797c1.396 0 1.979.665 1.979 1.747v12.713h4.76V26.972c0-2.58-1.422-5.426-5.606-5.426l-9.833-.006v18.17h4.76V25.254h3.94z"/>
    </g>
</svg>
