<svg xmlns="http://www.w3.org/2000/svg" width="188" height="40" viewBox="0 0 188 40">
    <g fill="none" fill-rule="nonzero">
        <path fill="#737373" d="M66.214 23.677l-1.122 3.138h-.094a22.088 22.088 0 0 0-1.09-3.077L57.89 8.815H52V32.6h3.896V17.923c0-.923 0-1.97-.03-3.261-.032-.647-.094-1.139-.125-1.508h.093c.187.923.405 1.6.561 2.03l7.232 17.354h2.743l7.17-17.507c.155-.4.311-1.2.467-1.877h.093a219.099 219.099 0 0 0-.187 4.277v15.077h4.146V8.754h-5.673l-6.172 14.923zm15.773-8.215h4.052v17.046h-4.052V15.462zm2.057-7.2c-.686 0-1.247.246-1.714.676-.468.431-.717.985-.717 1.662 0 .646.249 1.2.717 1.63.467.432 1.028.647 1.714.647.686 0 1.278-.246 1.714-.646.468-.431.717-.985.717-1.631s-.249-1.2-.717-1.662c-.405-.43-.997-.676-1.714-.676zm16.365 7.046a11.445 11.445 0 0 0-2.276-.246c-1.839 0-3.522.4-4.925 1.2-1.402.8-2.525 1.907-3.241 3.292-.749 1.415-1.123 3.046-1.123 4.923 0 1.63.374 3.077 1.091 4.4.717 1.292 1.715 2.338 3.055 3.046 1.278.708 2.774 1.077 4.458 1.077 1.932 0 3.584-.4 4.894-1.138l.03-.031v-3.693l-.155.124c-.592.43-1.278.8-1.964 1.015-.717.246-1.371.37-1.933.37-1.62 0-2.899-.462-3.802-1.478-.936-.984-1.403-2.338-1.403-4.03 0-1.754.467-3.139 1.434-4.154.966-1.016 2.244-1.539 3.803-1.539 1.309 0 2.65.43 3.865 1.292l.156.124v-3.908l-.031-.03c-.53-.216-1.123-.462-1.933-.616zm13.372-.123a4.31 4.31 0 0 0-2.743.953c-.685.554-1.153 1.354-1.558 2.308h-.031v-2.984h-4.053v17.046h4.053V23.8c0-1.477.311-2.708.997-3.6.686-.923 1.559-1.385 2.618-1.385.374 0 .749.093 1.216.154.436.123.748.246.966.4l.156.123v-4l-.093-.03c-.28-.185-.842-.277-1.528-.277zm11.035-.093c-2.837 0-5.112.831-6.702 2.462-1.62 1.63-2.4 3.877-2.4 6.708 0 2.646.81 4.8 2.369 6.369 1.559 1.538 3.678 2.338 6.328 2.338 2.774 0 4.987-.83 6.577-2.492 1.62-1.662 2.4-3.877 2.4-6.615 0-2.708-.748-4.862-2.275-6.431-1.466-1.57-3.616-2.339-6.297-2.339zm3.242 13.108c-.748.954-1.933 1.415-3.398 1.415s-2.65-.461-3.491-1.477c-.842-.953-1.247-2.338-1.247-4.092 0-1.815.436-3.2 1.247-4.184.842-.985 1.995-1.477 3.46-1.477 1.434 0 2.556.461 3.366 1.415s1.247 2.338 1.247 4.154c-.062 1.846-.405 3.292-1.184 4.246zm14.37-5.662c-1.278-.523-2.089-.923-2.463-1.261-.312-.308-.467-.739-.467-1.292 0-.462.187-.923.654-1.231.468-.308.998-.462 1.777-.462.686 0 1.403.123 2.088.308.686.185 1.31.462 1.808.83l.156.124V15.8l-.093-.03a11.36 11.36 0 0 0-1.84-.524 12.655 12.655 0 0 0-1.994-.184c-1.933 0-3.523.461-4.77 1.476-1.246.954-1.839 2.247-1.839 3.754 0 .8.125 1.508.406 2.093.28.584.685 1.138 1.246 1.6.561.43 1.372.923 2.494 1.384.935.4 1.652.708 2.089.954.436.246.717.523.935.739.156.246.25.553.25.953 0 1.139-.874 1.693-2.65 1.693-.686 0-1.403-.123-2.245-.4a8.715 8.715 0 0 1-2.275-1.139l-.156-.123v3.908l.093.03c.593.278 1.31.462 2.182.678.873.153 1.652.276 2.338.276 2.089 0 3.803-.461 5.019-1.476 1.247-.985 1.901-2.247 1.901-3.877 0-1.139-.312-2.154-.997-2.923a12.674 12.674 0 0 0-3.647-2.124zm15.336-7.446c-2.837 0-5.112.831-6.702 2.462-1.59 1.63-2.4 3.877-2.4 6.708 0 2.646.81 4.8 2.369 6.369 1.559 1.538 3.678 2.338 6.328 2.338 2.774 0 4.987-.83 6.577-2.492 1.62-1.662 2.4-3.877 2.4-6.615 0-2.708-.748-4.862-2.275-6.431-1.466-1.57-3.616-2.339-6.297-2.339zm3.21 13.108c-.748.954-1.932 1.415-3.397 1.415-1.496 0-2.65-.461-3.491-1.477-.842-.953-1.247-2.338-1.247-4.092 0-1.815.436-3.2 1.247-4.184.841-.985 1.995-1.477 3.46-1.477 1.402 0 2.556.461 3.366 1.415s1.247 2.338 1.247 4.154c0 1.846-.405 3.292-1.184 4.246zM188 18.754v-3.292h-4.083v-5.047l-.125.031-3.865 1.139-.094.03v3.847h-6.11v-2.154c0-.985.25-1.754.686-2.246.437-.493 1.091-.739 1.902-.739.56 0 1.153.123 1.808.4l.156.092V7.338l-.094-.03c-.561-.185-1.31-.308-2.275-.308a7.379 7.379 0 0 0-3.242.738 5.372 5.372 0 0 0-2.213 2.185c-.53.923-.81 1.97-.81 3.17v2.369h-2.837v3.261h2.836v13.785h4.084V18.754h6.11v8.77c0 3.6 1.714 5.414 5.142 5.414.561 0 1.154-.092 1.715-.184.592-.123 1.028-.277 1.278-.4l.031-.03V29.03l-.156.123c-.25.154-.467.277-.841.37a2.888 2.888 0 0 1-.81.122c-.811 0-1.372-.184-1.778-.646-.374-.43-.56-1.138-.56-2.185v-8.061H188z"/>
        <path fill="#F25022" d="M0 0h19v19H0z"/>
        <path fill="#7FBA00" d="M21 0h19v19H21z"/>
        <path fill="#00A4EF" d="M0 21h19v19H0z"/>
        <path fill="#FFB900" d="M21 21h19v19H21z"/>
    </g>
</svg>
