<svg xmlns="http://www.w3.org/2000/svg" width="164" height="28" viewBox="0 0 164 28">
    <g fill="none" fill-rule="nonzero">
        <path fill="#1A1919" d="M97.5 4l.002 21h5.895V4H97.5zM50 4v21h6.13V9.054l4.748.002c1.573 0 2.693.382 3.45 1.17.962.998 1.354 2.608 1.354 5.553V25h5.939V13.398C71.62 5.118 66.206 4 60.909 4H50zm57 0v21h9.92c5.285 0 7.009-.853 8.875-2.763 1.318-1.342 2.17-4.288 2.17-7.506 0-2.952-.72-5.585-1.979-7.225C123.72 4.573 120.456 4 115.583 4H107zm6.224 4.523h2.61c3.786 0 6.235 1.663 6.235 5.977 0 4.315-2.45 5.977-6.235 5.977h-2.61V8.524zM88.701 4L83.65 20.644 78.81 4 72.275 4l6.912 21h8.724L94.88 4h-6.177zm42.214 21h5.895V4.002L130.914 4v21zm16.587-20.998L139.103 25h5.931l1.33-3.712h9.938L157.56 25H164l-8.463-21-8.035.002zm4.272 3.552l3.709 10.015h-7.535l3.826-10.015z"/>
        <path fill="#76B900" d="M15.67 8.355v-2.53c.247-.017.494-.03.741-.037 6.867-.218 11.371 5.943 11.371 5.943s-4.865 6.808-10.081 6.808a6.28 6.28 0 0 1-2.03-.327v-7.67c2.673.326 3.21 1.515 4.818 4.214l3.574-3.036s-2.61-3.447-7.007-3.447c-.479 0-.936.034-1.385.082zm0-8.355v3.778c.247-.02.494-.035.741-.044 9.55-.324 15.77 7.889 15.77 7.889s-7.146 8.753-14.59 8.753c-.682 0-1.32-.063-1.92-.17v2.335c.513.066 1.044.105 1.6.105 6.927 0 11.936-3.564 16.787-7.783.804.65 4.097 2.228 4.774 2.92-4.612 3.89-15.361 7.024-21.455 7.024-.57-.002-1.14-.032-1.706-.089V28H42V0H15.671zm0 18.212v1.994c-6.406-1.151-8.185-7.86-8.185-7.86s3.077-3.434 8.186-3.991v2.188l-.01-.001c-2.681-.325-4.776 2.199-4.776 2.199s1.174 4.248 4.786 5.471zM4.292 12.054s3.797-5.645 11.38-6.228V3.778C7.273 4.458 0 11.623 0 11.623S4.119 23.62 15.671 24.718v-2.177c-8.477-1.075-11.38-10.487-11.38-10.487z"/>
    </g>
</svg>
