<svg xmlns="http://www.w3.org/2000/svg" width="117" height="40" viewBox="0 0 117 40">
    <g fill="none" fill-rule="nonzero">
        <path fill="#000" d="M103.224 18.722l-7.461 12.832-6.366.025 13.827-24.151L117 31.579h-6.467l-7.309-12.858v.001zm-20.091 7.271h7.13l-3.31 5.586h-9.294l.025-6.801V7.576h5.475l-.025 18.417h-.001zM63.578 7.577c6.799.025 12.299 5.386 12.274 12.012-.026 6.603-5.526 11.965-12.325 11.965-6.773-.025-12.273-5.386-12.273-12.014.025-6.602 5.525-11.963 12.324-11.963zm-.025 18.392c3.64 0 6.568-2.855 6.568-6.38.026-3.523-2.927-6.403-6.543-6.403-3.616-.025-6.57 2.855-6.57 6.38-.025 3.523 2.929 6.403 6.544 6.403h.001zM41.12 17.683c-.076-.994-.332-2.309-.714-3.574a18.117 18.117 0 0 0-3.997-7.025c-.968-1.042-2.063-2.01-3.694-3.152a62.292 62.292 0 0 1-3.666-1.96C28.26 1.524 27.317.976 26.071.58a21.552 21.552 0 0 0-4.508-.57 19.854 19.854 0 0 0-4.38.347c-1.502.248-2.75.644-4.405 1.042-3.744 1.613-6.646 4.046-9.142 7.273-8.709 12.137-.84 29.14 13.7 31.15 2.394.323 4.788.198 7.053-.323l1.605-.421a.474.474 0 0 1 .177-.05l1.835-.695c.1-.05.177-.076.28-.125l.763-.347a20.917 20.917 0 0 0 4.1-2.655 23.417 23.417 0 0 1-3.718 2.754l.076.05c.256-.075.484-.15.739-.198 0 0 0 .396-.05.322-.408.298.229.025 1.043-.398a12.815 12.815 0 0 0 2.317-1.539c1.045-.868 1.961-1.812 3.26-3.35 1.324-2.308 2.98-4.32 3.744-7.025.255-.72.483-1.563.636-2.432a15.58 15.58 0 0 0 .255-2.68c-.025-.919-.127-1.863-.331-3.028zM22.276 38.086c4.456-.696 8.2-3.152 11.255-6.503.84-1.217 1.502-2.334 2.317-3.55 1.018-2.483.943-4.691 1.273-6.254.408-2.831-.56-5.114-1.374-7.546-1.248-2.83-2.903-4.94-5.806-6.578-7.335-4.517-17.316-3.253-22.077 3.5-.025 0-.154.173-.409.52.332-1.388 1.173-2.208 2.012-3.003 2.496-2.035 5.4-3.65 8.71-4.442 3.744-.398 7.46 0 10.795 1.613 4.992 2.83 8.303 7.274 9.142 12.533v4.866c-1.043 7.968-7.919 14.025-15.838 14.844zm18.31-18.12C40.405 8.3 28.768.432 17.437 2.022c-3.31.818-6.927 2.456-9.499 4.74-1.248.818-1.833 2.333-3.08 3.548C-.135 17.584.733 26.892 6.945 32.552a24.074 24.074 0 0 0 2.546 2.184C4.3 31.632 1.955 26.94 1.141 21.233c0-2.036.407-4.047.84-6.082C4.885 6.24 14.026-.239 23.983 1.401c1.655.397 3.31.818 4.992 1.216 2.088.818 4.15 2.035 5.805 3.65 1.655 1.611 2.903 3.647 4.151 5.657.84 1.614 1.248 3.649 1.655 5.262a17.07 17.07 0 0 1 0 2.781v-.001z"/>
        <path fill="#FFF" d="M30 20.5c0 5.243-4.474 9.5-10 9.5-5.524 0-10-4.257-10-9.5S14.474 11 20 11s10 4.257 10 9.5z"/>
        <path fill="#D7DF23" d="M29.761 18.145c-.132-.734-.343-1.311-.553-2.123-.845-1.784-2.083-3.174-3.719-4.354-6.115-4.116-14.526-.157-15.421 6.871-.342 2.78.633 5.455 2.373 7.5-.528-.55-1.107-1.127-1.503-1.783l-.052.053c.052.157.264.262.316.419 0 0-.211 0-.158-.027-.158-.182-.026.106.21.499.212.393.475.761.791 1.102.45.498.923.944 1.714 1.547 1.161.602 2.189 1.39 3.533 1.756.37.107.79.21 1.214.289.447.08.869.106 1.344.106a8.26 8.26 0 0 0 1.502-.16 10.66 10.66 0 0 0 1.766-.365 9.109 9.109 0 0 0 3.48-1.994c.502-.47 1.215-1.074 1.767-1.861.449-.891.5-1.338.712-1.731.21-.394.474-.839.66-1.442.15-.716.239-1.445.263-2.177-.026-.733-.078-1.442-.238-2.124v-.001zm-6.275-4.876c.897.523 1.028.602.553.261.687.157 1.108.55 1.53.944 1.028 1.18 1.872 2.57 2.293 4.17.238 1.808.052 3.618-.711 5.218-1.37 2.438-3.56 4.064-6.17 4.51-.29 0-.605 0-.896.026.739-.132 1.214-.603 2.558-1.102 1.449-.524 3.084-2.962 3.876-4.379 2.32-3.855-.423-7.42-3.033-9.648zM18.53 28.423c-4.006-.418-7.092-3.748-7.513-7.604.368 2.151 1.634 3.802 3.347 5.271.607.394 1.503.944 2.11 1.338 1.028.393 1.634.813 2.636.997h-.58v-.002zm10.782-7c-.183.813-.368 1.6-.553 2.413-.396.997-.975 2.019-1.766 2.831-.791.814-1.793 1.443-2.794 2.046-.791.419-1.794.629-2.61.838-.476.053-1.03-.157-1.504-.182 5.853-.159 9.86-5.69 8.991-11.171-.423-1.6-1.266-2.99-2.294-4.38-.422-.603-1.24-.97-1.846-1.573-3.665-2.333-8.515-1.861-11.283 1.207-.388.403-.75.832-1.082 1.284 1.478-2.203 3.85-3.749 6.697-4.195 1.002-.027 2.03.158 3.032.341 4.43 1.363 7.725 5.717 7.012 10.542v-.001z"/>
    </g>
</svg>
