<svg xmlns="http://www.w3.org/2000/svg" width="160" height="39" viewBox="0 0 160 39">
    <g fill="none" fill-rule="nonzero">
        <path fill="#253B80" d="M59.564 9h-8.792a1.22 1.22 0 0 0-1.207 1.027l-3.556 22.455a.728.728 0 0 0 .725.843h4.197a1.22 1.22 0 0 0 1.207-1.028l.96-6.057a1.22 1.22 0 0 1 1.205-1.028h2.784c5.791 0 9.133-2.791 10.006-8.323.394-2.42.017-4.322-1.12-5.653C64.722 9.773 62.505 9 59.562 9zm1.014 8.201c-.48 3.143-2.891 3.143-5.222 3.143H54.03l.931-5.869a.732.732 0 0 1 .724-.616h.608c1.588 0 3.085 0 3.86.902.46.538.602 1.337.426 2.44zm25.267-.1h-4.21a.732.732 0 0 0-.724.615l-.187 1.173-.294-.425c-.912-1.318-2.944-1.758-4.973-1.758-4.652 0-8.626 3.51-9.4 8.433-.402 2.456.17 4.804 1.569 6.442 1.283 1.506 3.118 2.133 5.303 2.133 3.748 0 5.827-2.4 5.827-2.4l-.188 1.165a.728.728 0 0 0 .723.845h3.792a1.22 1.22 0 0 0 1.207-1.029l2.276-14.352a.725.725 0 0 0-.721-.843zm-5.869 8.16c-.406 2.397-2.315 4.005-4.75 4.005-1.223 0-2.2-.39-2.827-1.13-.622-.736-.859-1.782-.66-2.947.378-2.375 2.32-4.036 4.717-4.036 1.196 0 2.168.396 2.808 1.142.641.754.896 1.807.712 2.967zm28.292-8.16h-4.231c-.405 0-.784.2-1.012.533l-5.835 8.561-2.474-8.227a1.225 1.225 0 0 0-1.172-.868h-4.158a.727.727 0 0 0-.695.965l4.66 13.622-4.381 6.16A.727.727 0 0 0 89.568 39h4.225c.4 0 .776-.195 1.004-.522l14.072-20.232a.727.727 0 0 0-.601-1.146z"/>
        <path fill="#179BD7" d="M124.207 9.001h-8.562c-.585 0-1.083.441-1.174 1.039l-3.462 22.714a.755.755 0 0 0 .162.594.703.703 0 0 0 .541.258h4.394c.41 0 .758-.31.821-.728l.983-6.438c.09-.599.588-1.04 1.174-1.04h2.709c5.64 0 8.893-2.824 9.745-8.419.384-2.448.015-4.371-1.093-5.718C129.229 9.783 127.073 9 124.207 9zm.988 8.296c-.467 3.178-2.814 3.178-5.085 3.178h-1.29l.907-5.935a.719.719 0 0 1 .704-.623h.592c1.544 0 3.004 0 3.758.911.449.544.585 1.353.414 2.47zm24.6-.102H145.7a.718.718 0 0 0-.704.623l-.181 1.186-.288-.43c-.888-1.333-2.865-1.778-4.84-1.778-4.53 0-8.399 3.55-9.152 8.53-.39 2.484.164 4.86 1.526 6.516 1.251 1.523 3.036 2.158 5.163 2.158 3.65 0 5.674-2.429 5.674-2.429l-.182 1.18a.756.756 0 0 0 .162.595c.136.165.334.26.543.259h3.692c.585 0 1.083-.442 1.174-1.04l2.217-14.518a.758.758 0 0 0-.164-.594.705.705 0 0 0-.543-.258zm-5.714 8.255c-.393 2.424-2.254 4.05-4.625 4.05-1.188 0-2.142-.395-2.752-1.143-.606-.744-.834-1.802-.644-2.98.372-2.403 2.26-4.083 4.594-4.083 1.164 0 2.11.4 2.734 1.155.627.763.875 1.828.693 3.001zM154.63 9.624l-3.514 23.13a.755.755 0 0 0 .162.594.703.703 0 0 0 .542.258h3.532a1.2 1.2 0 0 0 1.175-1.04l3.465-22.712a.756.756 0 0 0-.162-.595.704.704 0 0 0-.541-.259h-3.956a.723.723 0 0 0-.703.624z"/>
        <path fill="#253B80" d="M9.189 38l.69-4.37-1.537-.035H1L6.102 1.353A.417.417 0 0 1 6.516 1h12.38c4.11 0 6.945.852 8.426 2.535.694.789 1.136 1.614 1.35 2.521.224.952.228 2.09.01 3.478l-.017.101v.89l.695.391c.53.268 1.006.63 1.405 1.068.594.675.978 1.533 1.14 2.55.168 1.045.113 2.29-.162 3.698-.317 1.62-.829 3.032-1.52 4.187a8.622 8.622 0 0 1-2.409 2.63c-.918.65-2.01 1.143-3.244 1.459-1.195.31-2.559.467-4.054.467h-.963c-.69 0-1.358.247-1.884.69a2.904 2.904 0 0 0-.981 1.747l-.073.394-1.22 7.7-.055.284c-.014.089-.04.134-.076.164a.205.205 0 0 1-.127.046H9.189z"/>
        <path fill="#179BD7" d="M30.74 9c-.036.239-.078.482-.124.733-1.595 8.464-7.052 11.388-14.022 11.388h-3.548c-.852 0-1.57.64-1.704 1.509L9.526 34.54l-.515 3.375a.96.96 0 0 0 .206.756.896.896 0 0 0 .69.329h6.294c.745 0 1.379-.56 1.496-1.32l.062-.33 1.185-7.772.076-.427c.116-.762.75-1.322 1.496-1.322h.941c6.098 0 10.871-2.559 12.267-9.964.582-3.093.28-5.676-1.262-7.492A6.047 6.047 0 0 0 30.74 9z"/>
        <path fill="#222D65" d="M29.366 9.556a12.422 12.422 0 0 0-1.52-.334A19.48 19.48 0 0 0 24.782 9h-9.286c-.73 0-1.352.527-1.464 1.242l-1.975 12.396L12 23a1.683 1.683 0 0 1 1.668-1.417h3.476c6.827 0 12.172-2.746 13.735-10.693.046-.235.086-.464.121-.688a8.37 8.37 0 0 0-1.285-.537 11.502 11.502 0 0 0-.35-.109z"/>
        <path fill="#253B80" d="M12.855 10.043c.118-.745.777-1.295 1.55-1.292h9.83c1.165 0 2.252.074 3.244.23a13.32 13.32 0 0 1 1.98.461c.489.158.942.344 1.36.56.492-3.062-.004-5.147-1.7-7.034C27.248.89 23.872 0 19.55 0H7.01c-.882 0-1.635.626-1.772 1.478L.013 33.784c-.049.304.04.613.245.847.204.234.503.369.818.369H8.82l1.944-12.034 2.091-12.923z"/>
    </g>
</svg>
