<svg xmlns="http://www.w3.org/2000/svg" width="158" height="29" viewBox="0 0 158 29">
    <path fill="#3051DC" fill-rule="evenodd" d="M42.64 8.309c.414 0 .787.338.787.787v15.008c0 .413-.373.747-.787.747h-2.034c-.398 0-.772-.308-.772-.722v-1.383c-1.024 1.524-2.785 2.57-5.369 2.57-4.33 0-6.994-2.868-6.994-7.108V9.07c0-.424.394-.762.813-.762h2.033c.414 0 .752.338.752.762v8.541c0 2.766 1.458 4.578 4.325 4.578 2.785 0 4.44-1.887 4.44-4.538V9.071c0-.424.374-.762.772-.762h2.034zM12.6 0C5.626 0 0 5.401 0 12.65c0 7.239 5.626 12.665 12.6 12.665 1.186 0 2.352-.167 3.437-.464l1.362 3.513c.136.404.414.636.929.636h2.17c.514 0 .913-.348.655-1.01l-1.76-4.613C22.888 21.18 25.2 17.304 25.2 12.65 25.2 5.401 19.574 0 12.6 0zm5.49 19.98l-1.6-4.125c-.135-.348-.413-.646-1.024-.646h-2.074c-.514 0-.928.338-.69.985l2.088 5.426a8.563 8.563 0 0 1-2.19.273c-5.117 0-8.73-3.993-8.73-9.243 0-5.23 3.613-9.238 8.73-9.238 5.117 0 8.73 4.008 8.73 9.238 0 3.054-1.226 5.674-3.24 7.33zm139.85 4.043c.176.414-.04.828-.56.828h-2.261c-.409 0-.772-.192-.914-.606l-4.198-11.322-4.29 11.322c-.18.44-.479.606-.892.606h-2.029c-.414 0-.737-.167-.918-.606l-4.3-11.388-4.249 11.388c-.171.414-.494.606-.903.606h-2.134c-.414 0-.737-.192-.904-.606l-4.213-11.388-4.34 11.388c-.182.44-.504.606-.918.606h-2.024c-.414 0-.737-.167-.893-.606l-4.249-11.388-4.239 11.388c-.14.414-.504.606-.918.606h-2.21c-.515 0-.707-.414-.555-.828l5.778-15.068c.166-.44.49-.646.903-.646h2.493c.413 0 .711.207.878.646l4.067 11.01 4.112-11.01c.177-.44.5-.646.914-.646h2.442c.414 0 .737.207.893.646l4.083 11.01 4.067-11.01c.182-.44.48-.646.893-.646h2.468c.398 0 .711.207.888.646l4.148 11.01 4.032-11.01c.181-.44.489-.646.903-.646h2.493c.413 0 .711.207.893.646l5.762 15.068zM62.395 8.309h-2.054c-.404 0-.802.338-.802.787v1.383c-1.02-1.56-3.038-2.645-5.4-2.645-4.48 0-8.356 3.554-8.356 8.723 0 5.245 3.875 8.758 8.316 8.758 2.402 0 4.38-1.11 5.44-2.675v1.464c0 .413.398.747.802.747h2.054a.745.745 0 0 0 .746-.747V9.096c0-.449-.333-.787-.746-.787zm-7.882 13.685c-2.973 0-5.077-2.403-5.077-5.402 0-3.033 2.104-5.386 5.077-5.386 2.931 0 5.076 2.353 5.076 5.386 0 2.999-2.145 5.402-5.076 5.402zm32.169.52c.449.555.075.969-.157 1.135-1.423 1.07-3.295 1.666-5.333 1.666-5.132 0-8.554-3.77-8.554-8.723 0-4.972 3.422-8.758 8.554-8.758 2.038 0 3.91.566 5.333 1.64.232.167.566.541.157 1.137l-.97 1.342c-.378.53-.827.404-1.205.142-.888-.556-1.973-.995-3.2-.995-3.022 0-5.015 2.418-5.015 5.492 0 3.05 1.993 5.442 5.016 5.442 1.226 0 2.23-.49 3.138-1.01.374-.191.798-.373 1.211.182l1.025 1.307zM96.28 7.86c-4.835 0-8.695 3.796-8.695 8.732 0 4.952 3.86 8.723 8.695 8.723 4.844 0 8.704-3.77 8.704-8.723 0-4.936-3.86-8.732-8.704-8.732zm0 14.098c-2.963 0-5.077-2.367-5.077-5.366 0-3.033 2.114-5.386 5.077-5.386 2.982 0 5.076 2.353 5.076 5.386 0 2.999-2.094 5.366-5.076 5.366zM69.526.454c.449 0 .762.374.762.788v22.821c0 .414-.313.788-.762.788h-2.044a.816.816 0 0 1-.787-.788V1.242c0-.414.373-.788.787-.788h2.044z"/>
</svg>
