<svg xmlns="http://www.w3.org/2000/svg" width="188" height="29" viewBox="0 0 188 29">
    <g fill="#034EA2" fill-rule="nonzero">
        <path d="M12.205 20.302c.253.655.172 1.494.049 2.003-.216.903-.808 1.825-2.56 1.825-1.642 0-2.641-.98-2.641-2.455V19.05H0v2.086C0 27.175 4.61 29 9.551 29c4.751 0 8.663-1.666 9.287-6.187.32-2.34.086-3.872-.025-4.438C17.703 12.704 7.73 11.012 6.985 7.84a3.575 3.575 0 0 1-.025-1.425c.185-.87.759-1.818 2.4-1.818 1.543 0 2.437.98 2.437 2.454V8.73h6.56V6.822C18.356.922 13.216 0 9.501 0 4.825 0 1.006 1.596.31 6.015.123 7.223.093 8.304.37 9.665c1.142 5.531 10.477 7.134 11.835 10.637M27.973 1.006L23 27h7.245l3.67-23.59h.151L37.636 27h7.207L39.902 1l-11.93.006zm40.507 0l-3.304 19.872h-.158L61.72 1.006H50.786L50.194 27h6.71l.164-23.37h.15L61.696 27h6.804l4.482-23.363h.145L73.296 27H80l-.592-26-10.928.006zM99.123 20.13c.252.65.172 1.481.05 1.986-.215.895-.804 1.809-2.544 1.809-1.63 0-2.624-.97-2.624-2.433v-2.604H87v2.068c0 5.989 4.578 7.798 9.488 7.798 4.72 0 8.605-1.652 9.224-6.134.319-2.32.086-3.84-.025-4.4-1.103-5.624-11.007-7.3-11.749-10.447a3.538 3.538 0 0 1-.024-1.412c.183-.864.753-1.803 2.384-1.803 1.532 0 2.42.97 2.42 2.434v1.664h6.516V6.765c0-5.85-5.106-6.765-8.795-6.765-4.646 0-8.44 1.582-9.133 5.964-.183 1.198-.214 2.27.062 3.619 1.134 5.484 10.407 7.073 11.755 10.547M122.438 23.242c1.866 0 2.44-1.269 2.572-1.915.057-.287.063-.672.063-1.014V.72h6.796V19.71c0 .582-.02 1.162-.063 1.742-.473 4.944-4.432 6.549-9.368 6.549-4.943 0-8.902-1.605-9.374-6.55a30.123 30.123 0 0 1-.063-1.74V.714h6.795v19.592c-.006.348.007.733.063 1.02.126.646.706 1.915 2.579 1.915zM155.269.722l.366 20.791h-.145L149.312.721h-9.96v26.21h6.6l-.366-21.514h.145l6.626 21.513h9.563V.721h-6.65zm23.168 22.246c1.941 0 2.622-1.212 2.742-1.928.057-.292.063-.665.063-.995V16.19h-2.755v-3.856H188v7.103c0 .497-.013.858-.095 1.741-.44 4.827-4.683 6.55-9.443 6.55s-8.996-1.723-9.444-6.55c-.075-.883-.094-1.244-.094-1.741V8.29c0-.473.063-1.307.113-1.742.6-4.957 4.665-6.549 9.425-6.549 4.76 0 8.933 1.58 9.425 6.543.088.846.063 1.741.063 1.741v.89h-6.771V7.687s0-.622-.082-1.007c-.126-.585-.63-1.928-2.685-1.928-1.955 0-2.528 1.275-2.673 1.928-.082.348-.114.82-.114 1.25v12.11c0 .335.013.708.063 1.007.126.709.807 1.921 2.749 1.921z"/>
    </g>
</svg>
