<svg xmlns="http://www.w3.org/2000/svg" width="98" height="48" viewBox="0 0 98 48">
    <defs>
        <linearGradient id="a" x1="49.965%" x2="49.965%" y1=".054%" y2="100.004%">
            <stop offset="0%" stop-color="#00B8F1"/>
            <stop offset="21.986%" stop-color="#06A5E5"/>
            <stop offset="21.986%" stop-color="#06A5E5"/>
            <stop offset="79.431%" stop-color="#1870C5"/>
            <stop offset="100%" stop-color="#1D61BC"/>
        </linearGradient>
    </defs>
    <g fill="none" fill-rule="evenodd">
        <path fill="url(#a)" fill-rule="nonzero" d="M0 0v48h49.524L98 .005H0z"/>
        <path fill="#1870C5" fill-rule="nonzero" d="M62.871 42.265v3.438h.516V44.21h.58l.936 1.492h.58l-1-1.492c.5-.062.904-.355.904-.973 0-.678-.412-.973-1.226-.973h-1.29zm.516.454h.71c.349 0 .742.057.742.486 0 .537-.398.584-.839.584h-.613v-1.07zM64.032 41C62.395 41 61 42.268 61 43.984 61 45.712 62.395 47 64.032 47 65.647 47 67 45.712 67 43.984A2.949 2.949 0 0 0 64.032 41zm0 .487c1.336 0 2.387 1.084 2.387 2.497 0 1.436-1.051 2.497-2.387 2.497-1.358 0-2.451-1.06-2.451-2.497 0-1.413 1.093-2.497 2.451-2.497z"/>
        <path fill="#FFF" d="M59.075 22.12H56.96v-7.517h2.114c2.822 0 5.068.904 5.068 3.71 0 2.899-2.246 3.807-5.068 3.807m-22.752 5.374a9.003 9.003 0 0 1-3.075-.53l3.045-9.337h.065l2.982 9.362a9.192 9.192 0 0 1-3.014.505M58.514 8.496h-9.599V30.69L40.529 8.496h-8.312l-7.165 18.556c-.757-4.677-5.74-6.296-9.657-7.504-2.582-.808-5.33-1.995-5.305-3.31.022-1.075 1.476-2.072 4.345-1.923 1.934.095 3.64.247 7.025 1.839l3.335-5.649C21.705 8.971 17.425 8.007 13.922 8h-.021c-4.086 0-7.49 1.295-9.602 3.415-1.467 1.483-2.261 3.358-2.297 5.446-.054 2.86 1.029 4.89 3.296 6.514 1.918 1.367 4.365 2.246 6.527 2.906 2.667.8 4.844 1.497 4.819 2.985a2.135 2.135 0 0 1-.633 1.452c-.663.67-1.683.918-3.094.95-2.72.052-4.738-.36-7.95-2.206l-2.965 5.727A22.638 22.638 0 0 0 12.868 38h.5c3.368-.063 6.088-.998 8.261-2.696l.352-.3-.96 2.51h8.717l1.465-4.33c1.531.505 3.276.788 5.122.788 1.802 0 3.502-.264 5.007-.746l1.408 4.288h14.223v-8.967h3.103c7.496 0 11.934-3.71 11.934-9.934 0-6.929-4.31-10.107-13.487-10.107"/>
    </g>
</svg>
