<svg xmlns="http://www.w3.org/2000/svg" width="86" height="30" viewBox="0 0 86 30">
    <g fill="#010202" fill-rule="nonzero">
        <path d="M4.899 21.426c.36.969.858 1.797 1.495 2.486a6.43 6.43 0 0 0 2.262 1.58c.872.365 1.82.547 2.844.547.996 0 1.93-.19 2.802-.569a6.892 6.892 0 0 0 2.284-1.6 7.276 7.276 0 0 0 1.515-2.465c.36-.956.54-2.023.54-3.203V0H23v29.494h-4.318v-2.738a10.006 10.006 0 0 1-3.425 2.401c-1.315.562-2.733.843-4.255.843-1.55 0-2.996-.274-4.339-.822a10.148 10.148 0 0 1-3.487-2.338c-.982-1.011-1.758-2.226-2.325-3.645C.284 21.777 0 20.197 0 18.455V0h4.36v18.202c0 1.18.18 2.254.539 3.224zM30.224 0v10.744a11.183 11.183 0 0 1 3.387-2.338c1.282-.576 2.676-.864 4.182-.864 1.561 0 3.024.295 4.39.885 1.367.59 2.551 1.39 3.555 2.402a11.31 11.31 0 0 1 2.384 3.581A11.08 11.08 0 0 1 49 18.792c0 1.545-.293 2.999-.878 4.361a11.37 11.37 0 0 1-2.384 3.56 11.214 11.214 0 0 1-3.554 2.402c-1.367.59-2.83.885-4.391.885-1.506 0-2.907-.288-4.203-.864a11.106 11.106 0 0 1-3.408-2.338v2.696H26V0h4.224zm.48 21.7c.377.898.9 1.685 1.569 2.36a7.565 7.565 0 0 0 2.342 1.6c.892.394 1.854.59 2.885.59a6.971 6.971 0 0 0 2.844-.59 7.314 7.314 0 0 0 2.32-1.6 7.819 7.819 0 0 0 1.569-2.36 7.22 7.22 0 0 0 .585-2.908 7.37 7.37 0 0 0-.585-2.928 7.749 7.749 0 0 0-1.568-2.38 7.194 7.194 0 0 0-5.165-2.149 7.277 7.277 0 0 0-5.185 2.149 7.562 7.562 0 0 0-1.59 2.38 7.37 7.37 0 0 0-.585 2.928c0 1.04.188 2.009.565 2.908zM51.85 14.06a11.807 11.807 0 0 1 2.341-3.66 10.872 10.872 0 0 1 3.532-2.49C59.085 7.303 60.56 7 62.15 7c1.56 0 3.007.289 4.34.866a10.291 10.291 0 0 1 3.447 2.404c.965 1.025 1.717 2.238 2.255 3.639.54 1.4.809 2.923.809 4.57v1.429H55.34c.142.895.426 1.725.851 2.49.426.766.958 1.43 1.596 1.993a7.268 7.268 0 0 0 2.17 1.32 6.977 6.977 0 0 0 2.575.477c2.582 0 4.667-1.083 6.255-3.248l3.107 2.339a11.614 11.614 0 0 1-4 3.465C66.305 29.58 64.518 30 62.532 30c-1.617 0-3.128-.289-4.532-.866a11.019 11.019 0 0 1-3.66-2.426 11.518 11.518 0 0 1-2.446-3.66c-.596-1.4-.894-2.924-.894-4.57 0-1.559.284-3.032.85-4.418zm5.98-1.71c-1.206 1.024-2.007 2.389-2.405 4.092H68.66c-.37-1.703-1.156-3.068-2.362-4.093-1.206-1.025-2.617-1.537-4.234-1.537s-3.029.512-4.234 1.537zM81.175 12.772c-.83 1.044-1.245 2.461-1.245 4.251V30H76V7.18h3.891v2.818c.493-.925 1.135-1.656 1.926-2.192C82.608 7.269 83.55 7 84.638 7H86v4.206h-1.634c-1.297 0-2.36.522-3.19 1.566z"/>
    </g>
</svg>
