<svg xmlns="http://www.w3.org/2000/svg" xmlns:xlink="http://www.w3.org/1999/xlink" width="86" height="28" viewBox="0 0 86 28">
    <defs>
        <path id="a" d="M44.498 19.036c-.049-3.813 3.444-5.941 6.076-7.206 2.704-1.299 3.612-2.131 3.602-3.292-.02-1.776-2.157-2.56-4.157-2.591-3.488-.053-5.516.93-7.128 1.672l-1.257-5.8c1.618-.736 4.613-1.378 7.72-1.406 7.29 0 12.061 3.551 12.087 9.057.028 6.987-9.796 7.374-9.73 10.497.024.947.94 1.958 2.947 2.215.993.13 3.736.229 6.845-1.184l1.22 5.613c-1.672.6-3.82 1.176-6.496 1.176-6.863 0-11.69-3.6-11.729-8.751m29.951 8.267a3.165 3.165 0 0 1-2.954-1.942L61.08.826h7.286l1.45 3.953h8.903L79.56.826h6.422l-5.604 26.477H74.45m1.02-7.152l2.102-9.943h-5.758l3.655 9.943m-39.804 7.152L29.921.826h6.943l5.74 26.477h-6.94m-10.27 0L18.166 9.282l-2.924 15.323c-.343 1.71-1.697 2.698-3.201 2.698H.228l-.165-.768c2.425-.52 5.18-1.357 6.85-2.253 1.021-.547 1.313-1.026 1.648-2.327L14.098.825h7.338l11.248 26.478h-7.29"/>
        <linearGradient id="c" x1="16.148%" x2="85.832%" y1="40.202%" y2="60.268%">
            <stop offset="0%" stop-color="#222357"/>
            <stop offset="100%" stop-color="#254AA5"/>
        </linearGradient>
    </defs>
    <g fill="none" fill-rule="evenodd" transform="matrix(1 0 0 -1 0 28)">
        <mask id="b" fill="#fff">
            <use xlink:href="#a"/>
        </mask>
        <g mask="url(#b)">
            <path fill="url(#c)" fill-rule="nonzero" d="M0 51.758l84.656 30.759 19.259-51.596L19.26.162" transform="translate(-8.935 -27.24)"/>
        </g>
    </g>
</svg>
