<svg xmlns="http://www.w3.org/2000/svg" width="157" height="24" viewBox="0 0 157 24">
    <g fill="#696566" fill-rule="nonzero">
        <path d="M67.05 21.485L60.218 2.516C60.13 2.254 60 1.908 60 1.604 60 .782 60.697 0 61.695 0c.872 0 1.44.564 1.7 1.386l5.662 16.346L74.76 1.34C75.02.564 75.543 0 76.409 0h.177c.916 0 1.482.564 1.742 1.341l5.656 16.392L89.736 1.3C89.953.603 90.428 0 91.346 0 92.301 0 93 .734 93 1.56c0 .303-.132.648-.217.913l-6.877 19.012C85.554 22.48 84.86 23 84.076 23h-.13c-.872 0-1.526-.521-1.833-1.515l-5.612-16.12-5.662 16.12c-.305.994-.96 1.515-1.828 1.515h-.092c-.824 0-1.518-.521-1.868-1.515M117 1.696c0-.915.753-1.696 1.683-1.696.98 0 1.732.739 1.732 1.696v3.848c1.684-3.737 5.42-5.5 7.895-5.5 1.025 0 1.69.737 1.69 1.693 0 .914-.618 1.562-1.513 1.693-4.437.52-8.071 3.782-8.071 10.258v7.619c0 .913-.709 1.693-1.684 1.693-.977 0-1.73-.742-1.73-1.693L117 1.697zM141.104 24C134.99 24 130 19.153 130 12.045v-.092C130 5.333 134.52 0 140.673 0 147.253 0 151 5.55 151 11.641c0 .936-.738 1.605-1.55 1.605h-16.088c.469 4.973 3.866 7.772 7.83 7.772 2.755 0 4.77-1.111 6.409-2.667.258-.22.559-.397.948-.397.815 0 1.463.667 1.463 1.47 0 .398-.171.8-.52 1.107-2.106 2.087-4.605 3.469-8.388 3.469zm6.583-13.288c-.346-4.181-2.67-7.821-7.104-7.821-3.872 0-6.798 3.33-7.224 7.821h14.328zM93 17.077v-.086c0-4.685 3.966-7.182 9.735-7.182 2.91 0 4.979.387 7.01.95V9.98c0-3.995-2.52-6.062-6.788-6.062-2.291 0-3.625.285-5.303 1.014a1.74 1.74 0 0 1-.611.13c-.793 0-1.502-.646-1.502-1.418 0-.686.307-1.11.928-1.38 2.243-.95 3.934-1.265 6.84-1.265 3.214 0 5.682.814 7.353 2.45C112.207 4.953 113 7.102 113 9.941v12.266c0 .943-.705 1.633-1.635 1.633-.965 0-1.62-.69-1.62-1.548v-2.12C108.156 22.197 105.51 24 101.51 24c-4.232-.003-8.51-2.365-8.51-6.923m16.787-1.72v-2.15a24.402 24.402 0 0 0-6.7-.946c-4.267 0-6.65 1.808-6.65 4.6v.085c0 2.794 2.64 4.428 5.728 4.428 4.183 0 7.622-2.495 7.622-6.017M6.184 1.909C5.442.279 3.609-.46 1.897.303.184 1.067-.447 2.971.327 4.602L7.514 20.26C8.644 22.714 9.836 24 12.071 24c2.389 0 3.43-1.4 4.56-3.74 0 0 6.268-13.68 6.33-13.824.065-.145.266-.587.904-.582a1 1 0 0 1 .993 1.014v13.378c0 2.063 1.14 3.754 3.336 3.754 2.194 0 3.38-1.691 3.38-3.754V9.298c0-2.111 1.51-3.481 3.567-3.481 2.057 0 3.426 1.42 3.426 3.481v10.948c0 2.063 1.145 3.754 3.337 3.754 2.193 0 3.385-1.691 3.385-3.754V9.298c0-2.111 1.504-3.481 3.562-3.481 2.054 0 3.429 1.42 3.429 3.481v10.948c0 2.063 1.144 3.754 3.337 3.754C57.81 24 59 22.309 59 20.246V7.786C59 3.209 55.326 0 50.905 0c-4.415 0-7.18 3.062-7.18 3.062C42.254 1.152 40.228.004 36.8.004c-3.618 0-6.785 3.058-6.785 3.058-1.47-1.91-3.974-3.058-6.048-3.058-3.206 0-5.753 1.413-7.306 4.974L12.07 15.82 6.184 1.909zM151 3.017v-.02A3.007 3.007 0 0 1 153.997 0 2.984 2.984 0 0 1 157 2.985v.012A3.007 3.007 0 0 1 153.997 6 2.976 2.976 0 0 1 151 3.017m5.423-.02V2.99c0-1.338-1.04-2.435-2.426-2.435a2.43 2.43 0 0 0-2.43 2.443v.016a2.408 2.408 0 0 0 2.43 2.432c1.37 0 2.426-1.114 2.426-2.448"/>
        <path d="M153 2.328c0-.182.117-.328.266-.328h.825c.31 0 .55.11.7.304.135.165.209.402.209.678v.01c0 .468-.19.754-.478.904l.364.552c.051.082.085.15.085.251 0 .182-.124.301-.25.301-.117 0-.196-.075-.258-.169l-.513-.806h-.421v.648c0 .182-.114.326-.262.326-.149 0-.266-.145-.266-.326V2.328H153zm1.061 1.117c.258 0 .399-.167.399-.42v-.01c0-.278-.152-.427-.408-.427h-.526v.856h.535z"/>
    </g>
</svg>
