<svg xmlns="http://www.w3.org/2000/svg" width="164" height="40" viewBox="0 0 164 40">
    <g fill="none" fill-rule="nonzero">
        <path fill="#007DC6" d="M.492 8.48s4.056 16.427 4.704 19.094c.755 3.112 2.117 4.257 6.042 3.485l2.533-10.185c.642-2.53 1.072-4.334 1.485-6.907h.073c.29 2.598.702 4.384 1.23 6.916 0 0 1.032 4.623 1.56 7.052.53 2.427 2.002 3.958 5.847 3.125L30.002 8.48h-4.873l-2.06 9.762c-.554 2.841-1.057 5.062-1.445 7.661h-.068c-.353-2.573-.8-4.706-1.364-7.474L18.047 8.48H12.97l-2.295 9.698c-.65 2.947-1.258 5.327-1.645 7.838h-.07a272.58 272.58 0 0 0-1.494-8.208S6.102 10.872 5.624 8.48H.492V8.48zm46.45 0v22.578h4.64V8.478h-4.64v.001zm65.34 0v16.656c0 2.296.437 3.905 1.372 4.888.818.86 2.164 1.417 3.777 1.417 1.372 0 2.721-.257 3.357-.492l-.06-3.583a7.132 7.132 0 0 1-1.762.208c-1.58 0-2.11-1-2.11-3.063V18.14h4.04v-4.32h-4.04v-5.34h-4.575zm-75.707 5.234c-2.883 0-5.172.8-6.42 1.512l.914 3.09c1.142-.711 2.96-1.3 4.68-1.3 2.85-.008 3.317 1.592 3.317 2.618v.243c-6.21-.01-10.133 2.115-10.133 6.444 0 2.643 1.997 5.12 5.47 5.12 2.137 0 3.924-.843 4.995-2.193h.105s.71 2.932 4.618 1.81c-.205-1.22-.272-2.52-.272-4.087v-6.032c0-3.844-1.66-7.225-7.274-7.225zm27.751 0c-2.903 0-4.207 1.454-4.998 2.687h-.069v-2.304h-4.427v16.962h4.664V21.11c0-.466.053-.96.218-1.388.387-1.002 1.33-2.173 2.835-2.173 1.882 0 2.762 1.572 2.762 3.841v9.668h4.66V20.99c0-.446.06-.982.193-1.375.383-1.14 1.4-2.067 2.8-2.067 1.907 0 2.823 1.545 2.823 4.216v9.294h4.662v-9.99c0-5.27-2.707-7.355-5.763-7.355-1.353 0-2.421.335-3.387.921-.812.492-1.538 1.192-2.173 2.113h-.07c-.738-1.828-2.472-3.034-4.73-3.034zm25.611 0c-2.882 0-5.17.8-6.42 1.512l.915 3.09c1.14-.711 2.96-1.3 4.68-1.3 2.848-.008 3.315 1.592 3.315 2.618v.243c-6.209-.01-10.132 2.115-10.132 6.444 0 2.643 1.998 5.12 5.472 5.12 2.136 0 3.924-.843 4.993-2.193h.105s.71 2.932 4.619 1.81c-.206-1.22-.272-2.52-.272-4.087v-6.032c0-3.844-1.661-7.225-7.275-7.225zm19.368 0c-1.786 0-3.818 1.139-4.67 3.581h-.13v-3.199h-4.2V31.06h4.787v-8.686c0-.469.028-.877.104-1.252.353-1.82 1.762-2.982 3.783-2.982.554 0 .951.059 1.38.12v-4.44a4.664 4.664 0 0 0-1.054-.106zm-70.09 9.169v2.116c0 .313-.027.636-.115.918-.359 1.175-1.59 2.169-3.13 2.169-1.285 0-2.304-.72-2.304-2.244 0-2.33 2.595-2.974 5.55-2.96zm53.362 0v2.116c0 .313-.028.636-.115.918-.359 1.175-1.59 2.169-3.13 2.169-1.285 0-2.305-.72-2.305-2.244 0-2.33 2.596-2.974 5.55-2.96z"/>
        <path fill="#FFC220" d="M145.98.314c-1.498 0-2.689.827-2.689 1.833l.91 10.179c.1.613.86 1.086 1.78 1.086.92-.001 1.677-.474 1.78-1.086l.914-10.18c0-1.005-1.194-1.832-2.694-1.832h-.002zm-14.823 8.165c-.777.018-1.66.6-2.222 1.563-.752 1.282-.619 2.714.26 3.217l9.373 4.314c.586.215 1.381-.196 1.842-.98.462-.79.427-1.676-.06-2.07l-8.466-5.867a1.38 1.38 0 0 0-.726-.177zm29.645 0c-.26-.006-.506.05-.726.176l-8.466 5.869c-.485.393-.52 1.28-.06 2.068.462.785 1.255 1.196 1.84.981l9.378-4.314c.883-.502 1.01-1.935.263-3.217-.564-.963-1.45-1.545-2.227-1.563h-.002zm-21.883 13.43a.96.96 0 0 0-.35.058l-9.372 4.308c-.88.505-1.013 1.938-.261 3.222.749 1.28 2.07 1.887 2.949 1.386l8.466-5.864c.487-.398.523-1.285.06-2.072l.004.001c-.374-.641-.97-1.032-1.496-1.04zm14.125 0c-.524.007-1.12.398-1.495 1.04l.003-.002c-.46.788-.425 1.674.06 2.072l8.466 5.864c.878.502 2.2-.107 2.952-1.386.747-1.284.62-2.717-.263-3.221l-9.374-4.31a.958.958 0 0 0-.349-.057zm-7.066 4.218c-.917.001-1.676.472-1.776 1.084l-.91 10.179c0 1.008 1.191 1.832 2.689 1.832 1.5 0 2.693-.825 2.693-1.832l-.912-10.179c-.102-.612-.86-1.083-1.78-1.084h-.004z"/>
    </g>
</svg>
