<svg xmlns="http://www.w3.org/2000/svg" width="60" height="60" viewBox="0 0 60 60">
    <g fill="none" fill-rule="evenodd">
        <path fill="#FFF" fill-rule="nonzero" d="M0 0h60v60H0z"/>
        <path fill="#54C5F1" fill-rule="nonzero" d="M43.62 31.56v-2.82a.88.88 0 0 0-.88-.88 26 26 0 0 0-5.11.47 7.9 7.9 0 0 0-3.3-1.93 6.15 6.15 0 1 0-7.92 0 8 8 0 0 0-3.3 1.93 26 26 0 0 0-5.11-.47.88.88 0 0 0-.88.88v2.82a2.65 2.65 0 0 0-1.75 2.5v1.78a2.67 2.67 0 0 0 1.75 2.51v2.81a.89.89 0 0 0 .88.89 20.3 20.3 0 0 1 11.88 3.45c.3.208.7.208 1 0a20.32 20.32 0 0 1 11.88-3.45.89.89 0 0 0 .88-.89v-2.81a2.68 2.68 0 0 0 1.76-2.51v-1.78a2.66 2.66 0 0 0-1.78-2.5zM26 21.65a4.4 4.4 0 1 1 4.4 4.43 4.45 4.45 0 0 1-4.4-4.43zm-8 15.07a.88.88 0 0 1-.88-.88v-1.78a.88.88 0 1 1 1.76 0v1.78a.87.87 0 0 1-.88.88zm11.49 6.45a21.9 21.9 0 0 0-10.61-2.89v-1.93a2.67 2.67 0 0 0 1.76-2.51v-1.78a2.65 2.65 0 0 0-1.76-2.5v-1.92a19.75 19.75 0 0 1 10.61 3.13v10.4zm.88-11.94a21.16 21.16 0 0 0-5.11-2.37 6.09 6.09 0 0 1 3.35-1h3.52a6.15 6.15 0 0 1 3.36 1 21.05 21.05 0 0 0-5.12 2.37zm11.49 9.05a21.9 21.9 0 0 0-10.61 2.89v-10.4a19.75 19.75 0 0 1 10.61-3.13v1.92a2.66 2.66 0 0 0-1.76 2.5v1.78a2.68 2.68 0 0 0 1.76 2.51v1.93zm1.76-4.44a.88.88 0 1 1-1.76 0v-1.78a.88.88 0 1 1 1.76 0v1.78z"/>
        <ellipse cx="29.96" cy="30.19" stroke="#1C3D6F" stroke-linecap="round" stroke-linejoin="round" stroke-width="2" rx="24.22" ry="24.43"/>
        <circle cx="53.41" cy="30.64" r="4.16" stroke="#FFF" stroke-width="3"/>
        <circle cx="53.41" cy="30.64" r="4.16" fill="#54C5F1" fill-rule="nonzero"/>
        <circle cx="53.41" cy="30.64" r="4.16" stroke="#1C3D6F" stroke-width="2.3"/>
        <circle cx="30.64" cy="6.59" r="4.16" stroke="#FFF" stroke-width="4"/>
        <circle cx="30.64" cy="6.59" r="4.16" fill="#54C5F1" fill-rule="nonzero"/>
        <circle cx="30.64" cy="6.59" r="4.16" stroke="#1C3D6F" stroke-width="2.3"/>
        <circle cx="6.59" cy="29.36" r="4.16" stroke="#FFF" stroke-width="4.25"/>
        <circle cx="6.59" cy="29.36" r="4.16" fill="#54C5F1" fill-rule="nonzero"/>
        <circle cx="6.59" cy="29.36" r="4.16" stroke="#1C3D6F" stroke-width="2.3"/>
        <circle cx="29.36" cy="53.41" r="4.16" stroke="#FFF" stroke-width="4.25"/>
        <circle cx="29.36" cy="53.41" r="4.16" fill="#54C5F1" fill-rule="nonzero"/>
        <circle cx="29.36" cy="53.41" r="4.16" stroke="#1C3D6F" stroke-width="2.3"/>
    </g>
</svg>
