<svg xmlns="http://www.w3.org/2000/svg" width="60" height="60" viewBox="0 0 60 60">
    <g fill="none" fill-rule="evenodd">
        <path fill="#FFF" fill-rule="nonzero" d="M0 0h60v60H0z"/>
        <circle cx="30.35" cy="30.54" r="3.49" stroke="#1C3D6F" stroke-width="2.3"/>
        <path stroke="#1C3D6F" stroke-width="2.34" d="M25.91 40.32a4.75 4.75 0 0 1 4.51-6.27 5 5 0 0 1 3.83 2.14 5.08 5.08 0 0 1 .68 3.92"/>
        <circle cx="30.32" cy="30.11" r="10.94" stroke="#54C5F1" stroke-width="2"/>
        <circle cx="50.46" cy="9.96" r="4.52" stroke="#54C5F1" stroke-width="2"/>
        <path stroke="#54C5F1" stroke-width="2" d="M47.29 13.39l-9.48 9.48"/>
        <circle cx="9.96" cy="9.9" r="4.52" stroke="#54C5F1" stroke-width="2"/>
        <path stroke="#54C5F1" stroke-width="2" d="M13.39 13.07l9.48 9.48"/>
        <circle cx="9.9" cy="50.4" r="4.52" stroke="#54C5F1" stroke-width="2"/>
        <path stroke="#54C5F1" stroke-width="2" d="M13.07 46.97l9.48-9.48"/>
        <circle cx="50.4" cy="50.46" r="4.52" stroke="#54C5F1" stroke-width="2"/>
        <path stroke="#54C5F1" stroke-width="2" d="M46.97 47.29l-9.48-9.48"/>
    </g>
</svg>
