<svg xmlns="http://www.w3.org/2000/svg" width="60" height="60" viewBox="0 0 60 60">
    <g fill="none" fill-rule="evenodd">
        <path fill="#FFF" fill-rule="nonzero" d="M0 0h60v60H0z"/>
        <circle cx="19.78" cy="11.5" r="5.66" stroke="#1C3D6F" stroke-width="2"/>
        <circle cx="47.99" cy="19.89" r="5.66" stroke="#54C5F1" stroke-width="2"/>
        <path stroke="#1C3D6F" stroke-width="2" d="M5.37 39.13c.13-4 .26-8.93.39-12.92a5.13 5.13 0 0 1 1.59-3.52 5.32 5.32 0 0 1 3.07-1.15c2.87-.27 9.23-.35 17.6-.13a6.39 6.39 0 0 1 3 .81 5.78 5.78 0 0 1 2.3 2.3c1.19 2.35.6 4.35 1.79 6.29.59 1 1.93 2.08 5.4 2.42"/>
        <path stroke="#52C5F1" stroke-width="2" d="M54.72 39s1.08-9.89-7.1-9.89h.06c-8.19 0-7.1 9.89-7.1 9.89"/>
        <path stroke="#1C3D6F" stroke-width="2" d="M12.96 21.14v17.39M26.5 21.16v17.79"/>
        <path fill="#1C3D6F" fill-rule="nonzero" d="M54.67 40.56V52.4H6.32V40.56h48.35zm1.29-2H5a.71.71 0 0 0-.71.72v14.4a.71.71 0 0 0 .71.72h51a.71.71 0 0 0 .71-.72v-14.4a.71.71 0 0 0-.71-.72h-.04z"/>
    </g>
</svg>
