<svg xmlns="http://www.w3.org/2000/svg" width="60" height="60" viewBox="0 0 60 60">
    <g fill="none" fill-rule="evenodd">
        <path fill="#FFF" fill-rule="nonzero" d="M0 0h60v60H0z"/>
        <path stroke="#1D3C6F" d="M32.02 20.23l-2.34-.01h-2.33L28.38 17h2.6zM23.89 22.63l1.66-1.64-3.02-1.55-.92.92-.92.91 1.54 3.01zM21.49 28.44l.02-2.34-3.23 1.04v2.6l3.21 1.03zM23.91 34.23l1.64 1.66-3 1.53-.91-.91-.93-.91 1.56-3.04zM29.71 36.63h2.34l-1.04 3.22h-2.6l-1.03-3.23z"/>
        <path stroke="#1D3C6F" stroke-width="2" d="M36.88 28.42a7.18 7.18 0 1 1-14.36.02 7.18 7.18 0 0 1 14.36-.02z"/>
        <path stroke="#1D3C6F" d="M35.51 34.21l-1.67 1.64 3.02 1.56.92-.92.92-.92-1.54-3.01z"/>
        <path stroke="#1D3C6F" stroke-width=".75" d="M37.89 26.07l.01 2.33v2.34l3.22-1.03v-2.6z"/>
        <path stroke="#1D3C6F" d="M37.13 24.27l1.55-3.02-.92-.91-.92-.92-3 1.54 1.65 1.65z"/>
        <path stroke="#52C5F1" stroke-width="2" d="M7.87 28.43A22.08 22.08 0 0 0 47.35 42M52 28.43a22.08 22.08 0 0 0-40.4-12.32M13.09 28.43l-11.13-.05 5.59-9.94zM46.31 28.53l11.13.05-5.59 9.94z"/>
    </g>
</svg>
