<svg xmlns="http://www.w3.org/2000/svg" xmlns:xlink="http://www.w3.org/1999/xlink" width="59" height="59" viewBox="0 0 59 59">
    <defs>
        <path id="a" d="M0 0h59v59H0z"/>
    </defs>
    <g fill="none" fill-rule="evenodd">
        <mask id="b" fill="#fff">
            <use xlink:href="#a"/>
        </mask>
        <use fill="#FFF" fill-rule="nonzero" xlink:href="#a"/>
        <path stroke="#1D3C6F" stroke-linecap="round" stroke-linejoin="round" stroke-width="1.967" d="M14.11 47.957l18.684 3.934a2.95 2.95 0 0 0 1.967-.276l10.728-5.792 8.506-4.523c.106-.05.205-.112.295-.187.688-.59.649-2.193.275-2.95a3.422 3.422 0 0 0-2.95-1.671 2.252 2.252 0 0 0-.364.117c-4.916 1.967-9.754 3.934-14.68 5.9l-8.536-.226" mask="url(#b)"/>
        <path stroke="#1D3C6F" stroke-width="1.967" d="M12.98 33.738c3.009-.482 5.998.453 8.85 1.387 1.465.481 2.694.895 4.14 1.307.173.049.351.079.53.089 3.417.114 6.838.048 10.247-.197a2.4 2.4 0 0 1 2.026.679 3.471 3.471 0 0 1-2.203 5.428" mask="url(#b)"/>
        <rect width="9.509" height="16.992" x="4.169" y="32.627" fill="#EAF3FB" fill-rule="nonzero" stroke="#1D3C6F" stroke-width="1.967" mask="url(#b)" rx=".62"/>
        <path fill="#52C5F1" fill-rule="nonzero" d="M40.012 20.768a5.487 5.487 0 0 0 1.72-4.051 5.27 5.27 0 1 0-10.53 0 5.497 5.497 0 0 0 1.73 4.021 6.883 6.883 0 0 0-5.487 6.884v1.514h1.504v-1.514a5.36 5.36 0 0 1 5.271-5.448h4.523a5.379 5.379 0 0 1 5.271 5.448v1.475h1.505v-1.475a6.942 6.942 0 0 0-5.507-6.854zm-3.54-.118a3.874 3.874 0 1 1 3.776-3.933 3.825 3.825 0 0 1-3.776 3.933z" mask="url(#b)"/>
        <path fill="#52C5F1" fill-rule="nonzero" d="M27.445 29.097h1.504v1h-1.504z" mask="url(#b)"/>
        <ellipse cx="36.275" cy="19.627" stroke="#52C5F1" stroke-width="1.967" mask="url(#b)" rx="12.587" ry="12.597"/>
    </g>
</svg>
